<svg width="801" height="504" viewBox="0 0 801 504" fill="none" xmlns="http://www.w3.org/2000/svg">
<g clip-path="url(#clip0_524243_16)">
<path d="M134.744 255.288L131.814 270.393L129.525 273.171H127.335L126.246 270.714L123.246 269.57L120.581 270.03L119.73 281.646L120.177 285.973L119.716 288.626L118.461 291.32L117.735 293.01L118.809 295.788L120.051 297.393L121.098 302.475L123.121 304.681L123.539 306.663L122.186 308.018L118.014 309.498L116.019 312.499L114.61 318.67L112.363 321.671L111.079 321.909L110.186 327.549L110.954 328.68L112.545 328.847L113.619 330.578L112.824 332.98L109.977 335.074L108.066 334.99L106.531 336.372L106.168 338.522L162.217 371.316L194.49 375.993L209.657 267.657L174.928 262.436L134.744 255.288Z" fill="#A2C5D3"/>
<path d="M501.833 314.579L502.07 314.244L501.456 313.714L501.721 312.402L500.675 311.55L501.317 310.489L501.261 309.623L499.782 309.498L501.303 307.976L502.238 308.548L502.363 307.976L502.014 307.013L502.182 305.854L503.703 306.315L503.466 305.421L504.805 304.332L504.652 304.053L503.703 304.137L502.88 302.88L503.982 301.763L505.335 301.596L505.782 300.898L506.8 300.744L506.786 300.563L505.977 299.753V298.762H507.456L507.512 298.65L506.438 297.882L506.382 297.547L496.196 298.273L499.028 293.094L500.438 291.851V290.218L499.224 288.305L464.509 290.05L430.631 290.651L434.161 311.69V311.731L433.547 345.838L435.5 347.569L437.859 346.48L441.096 347.29L441.263 357.663L486.596 356.532L487.475 355.429L487.866 353.056L486.596 351.101L486.094 348.853L486.917 348.197V347.904L485.466 346.955L485.313 345.894L486.471 345.237L485.648 344.484L487.238 337.824L490.168 336.442V336.135L489.136 334.809L491.912 329.615H493.671L494.731 328.778L494.466 324.268L497.34 320.094L498.721 319.633L498.401 317.595L496.503 317.721L498.289 316.939L498.275 316.813L498.638 316.785L499.824 316.269L500.703 314.105L501.833 314.579Z" fill="#A2C5D3"/>
<path d="M112.084 329.587L110.508 329.42L109.35 327.731L110.382 321.239L111.917 320.946L113.884 318.321L115.28 312.178L117.498 308.842L121.754 307.334L122.675 306.412L122.396 305.058L120.373 302.852L119.312 297.743L118.112 296.179L116.898 292.982L117.666 291.195L55.9515 198.998L54.933 195.759L54.9609 195.647L69.2627 140.544L11.9577 124.391L11.3159 126.178L11.2322 133.577L7.72996 141.661L7.81368 142.931L6.20909 145.193L0.251154 151.685L0 156.012L4.82774 165.771V165.813L4.64635 171.607L2.62316 174.776L1.93947 183.976L7.60439 195.173L8.609 198.705L8.00902 203.535L12.5298 208.659L12.9484 208.701L13.367 208.17L12.9623 207.095L14.3995 203.437L16.0878 202.837L18.1529 206.104L15.6832 207.416L16.4645 208.742L16.0041 209.734L17.2041 212.638V217.719L13.1716 214.215V211.66L13.8832 211.032L13.9251 210.18L12.5158 210.069L12.3624 211.604L11.3159 215.234V221.698L12.5856 224.658L14.6367 227.366H16.7855L17.8877 228.357L18.2645 231.443L16.5483 234.416L14.539 235.087L14.0507 240.88L16.5204 243.184L18.3482 247.735L18.1808 249.885L19.5482 251.881L19.9109 254.506L22.2411 257.717L22.255 257.745L25.7433 265.968L27.0828 267.504L25.4363 272.167L24.7526 276.341L24.5852 278.602L26.5526 280.571L28.9525 280.836L33.1384 282.176L35.8313 284.173L39.0963 284.62L41.5939 286.658L41.6218 286.714L45.5705 292.493L46.8123 294.085L49.1425 295.16L52.5749 295.691L54.7237 296.877L55.4074 300.465L54.5283 301.903L55.9376 303.243L59.1189 303.146L65.4256 310.908L65.9558 312.22L67.0163 313.463L68.6348 317.804L68.9976 324.827L68.8162 327.41L69.5976 329.741L107.954 334.195L109.74 334.278L112.154 332.491L112.754 330.676L112.084 329.587Z" fill="#A2C5D3"/>
<path d="M514.977 406.944L510.763 400.969V400.955V400.885L511.6 396.669L512.466 395.455L512.521 394.785L480.89 396.544L482.453 385.542L484.615 381.215L489.722 374.067L487.852 371.47H489.987V369.125L487.839 366.877L488.271 365.411L487.308 364.615V364.545L485.843 358.109L486.178 357.328L441.277 358.445L441.71 375.519L442.296 378.367L444.584 380.838L445.198 385.598L448.519 389.633L449.175 393.193H450.124L450.026 400.104L447.179 405.632L448.351 407.712L447.166 409.094L447.752 411.579V411.607L447.654 415.516L445.714 418.616L445.617 419.411L444.277 420.361L444.947 421.575L445.7 422.273L446.928 421.282L451.742 420.472L457.17 420.389L465.625 423.739L472.42 424.591L473.704 423.39L475.155 423.223L473.676 421.115L476.997 418.895L478.923 418.769V420.263L479.816 420.207L483.15 419.914L483.527 422.064L484.462 422.399L484.978 424.033L489.08 424.884L490.783 426.49V427.676H489.513L488.606 428.709L489.666 429.463L494.452 430.357L496.754 432.744L496.88 432.716L496.699 431.655L499.238 431.013L499.419 429.435L500.438 429.184V427.83L502.196 427.983V429.366L503.745 429.421L504.484 427.662L505.866 428.123L506.033 430.273L507.498 430.51L506.466 431.669L507.275 431.39L508.935 430.468L509.94 429.324L509.382 429.184L508.712 428.123L509.591 426.95V424.856L510.987 423.837L511.587 424.437L512.284 423.879L513.554 423.753L514.265 425.289L513.861 426.587H515.493L520.209 428.165L520.684 429.393L521.912 430.468L524.326 430.552L525.358 431.111L526.642 430.399L527.325 429.1V428.095H526.307L525.149 426.741L524.27 425.861L521.633 425.121L519.303 425.303L515.312 423.013V420.57L516.554 419.621L515.772 419.216L516.093 417.918H519.358L521.284 415.321L519.051 413.771L519.749 412.459L519.093 412.026H518.675L517.14 413.632V415.461L516.386 416.34L515.089 416.228L513.693 415.014H512.312V413.157L513.191 412.124L513.917 412.766L515.089 411.663L515.731 410.169L516.065 410.044L515.87 409.82L514.726 408.089L514.991 406.958L514.977 406.944ZM501.624 411.384H500.006V408.885L501.722 407.28L503.424 408.005V409.388L501.624 411.384ZM512.842 412.347L511.977 410.895L511.14 411.607L510.303 412.92L507.624 413.674L506.159 413.771L502.545 412.794L502.657 410.826L504.47 409.011L505.517 406.721L507.275 406.833L509.103 407.796L509.745 408.676L511.838 408.759L513.414 409.597L513.638 411.175L512.856 412.347H512.842Z" fill="#A2C5D3"/>
<path d="M432.767 345.488L433.381 311.759L429.837 290.678H429.781V290.301L429.711 289.882H429.767L429.613 281.171L375.573 281.087L316.51 278.546L315.715 278.518V278.504L302.027 277.681L301.553 286.211L347.709 289.017L346.481 326.697L348.7 327.758L350.849 330.355L351.839 330.55L352.83 329.657L354.156 330.104L355.118 330.788L356.081 329.461L358.551 331.29L358.983 333.817L359.779 334.278L361.788 334.18L364.871 335.855L366.462 335.772L367.871 335.381L369.755 337.182L371.401 335.269L374.862 336.358L376.48 338.927L378.852 338.829L378.155 340.881L379.634 341.593L382.299 339.276L384.657 340.826L386.108 340.267L386.22 341.928L387.28 342.682L389.275 340.504L390.838 341.412L390.559 343.311L391.159 344.399L391.787 343.981L394.201 339.904L396.056 341.97L397.591 342.347L399.545 341.705L401.345 343.325L402.391 343.241L403.507 344.26L406.256 343.576L406.8 342.04L410.4 341.747L411.726 342.333L416.33 340.016L416.916 341.468L420.837 341.244L421.325 339.681L423.711 340.658L427.73 343.995L432.767 345.488Z" fill="#A2C5D3"/>
<path d="M443.26 420.11L444.906 418.951L444.976 418.336L446.901 415.265L446.985 411.649L446.329 408.871L447.418 407.601L446.315 405.632L449.259 399.908L449.343 393.975H448.548L447.794 389.982L444.46 385.919L443.846 381.187L441.571 378.744L440.929 375.574L440.497 358.472L440.483 357.677L440.316 347.904L437.93 347.318L435.376 348.504L432.962 346.368L427.353 344.707L423.293 341.342L421.814 340.742L421.423 341.999L416.386 342.292L415.926 341.105L411.754 343.199L410.261 342.543L407.372 342.78L406.856 344.232L403.284 345.126L402.112 344.051L401.066 344.135L399.35 342.599L397.619 343.171L395.638 342.683L394.34 341.231L392.373 344.54L390.88 345.531L389.736 343.451L389.973 341.831L389.429 341.51L387.392 343.73L385.466 342.362L385.397 341.384L384.559 341.705L382.369 340.267L379.76 342.529L377.192 341.301L377.736 339.667L376.062 339.737L374.346 337.029L371.667 336.177L369.811 338.327L367.648 336.261L366.546 336.568L364.69 336.652L361.607 334.99L359.583 335.074L358.272 334.306L357.825 331.737L356.249 330.565L355.3 331.877L353.793 330.816L353.012 330.551L352.077 331.402L350.43 331.081L348.198 328.401L345.672 327.186L345.686 326.921L346.9 289.757L301.12 286.979H300.799L293.851 374.318L265.554 372L235.737 368.873L235.527 370.939L237.104 372.685L239.281 373.578L240.802 376.915L242.043 378.241L241.862 379.274L243.494 380.67L246.173 381.829L249.02 385.752L251.35 387.832L251.866 389.633L254.476 391.252V392.258L255.913 393.472L256.68 393.556L258.94 395.148L259.499 396.041L260.713 396.236V397.284L262.094 398.68L262.624 402.407L264.912 406.037L265.01 408.354L264.354 409.583L264.94 410.658L264.759 412.054L266.754 415.544L266.838 417.234L269.615 419.76L270.466 419.844L272.168 421.129L271.987 421.869L274.749 424.633L276.479 425.289L277.735 425.484L279.228 427.509L282.395 427.956L284.14 430.468H284.949L286.526 431.781L288.563 431.711L288.632 430.259L289.874 429.687L290.711 428.207L291.758 428.109L292.79 427.216L293.739 423.418L295.525 420.542L297.088 417.974L300.241 416.829L302.013 417.303L303.199 415.586L307.106 417.541H311.125L313.413 418.518H315.115L316.413 417.415L317.166 418.071H317.92L319.803 420.584L320.669 420.794V421.436L321.701 421.785L321.785 423.404L324.701 424.912V425.945L329.096 430.092L330.757 432.939L330.84 434.447L333.226 438.775L333.129 440.562L334.901 442.517L334.817 443.131L336.142 444.555L335.57 445.351L335.431 446.412L336.268 446.998L336.449 448.869L338.877 450.963L340.705 452.429L341.459 454.453L342.142 454.621L342.965 456.38L342.882 457.957L346.133 460.805H347.096L348.798 462.215L349.551 465.245L348.965 467.772L350.054 468.931L350.333 471.067L349.872 473.105L351.03 473.607V475.087L352.426 476.232L353.472 477.838L354.253 481.956L355.509 483.575V484.553L360.044 485.907L362.793 488.141L364.607 488.057L366.253 489.034L369.351 491.617L371.681 492.287H377.904L380.08 492.859L383.052 496.084L384.211 496.266L384.392 496.322L384.28 495.512L385.969 494.032L387.699 494.186L387.713 494.116L385.843 491.896L384.838 489.956V487.666L384.238 486.396L383.234 486.033L382.731 484.176L383.736 483.771L384.043 482.124L383.555 479.611L382.118 478.354V475.241L383.206 474.473L382.997 473.51L382.731 471.932L383.834 472.03L384.057 470.201L382.857 470.578L379.55 469.475L383.666 468.917L384.755 468.135L385.55 466.795L385.815 464.337L387.28 461.475L386.666 461.001L385.41 460.219L385.048 458.544L387.029 457.329L388.466 457.874L389.596 457.371L391.089 454.635L391.452 453.071L392.345 452.289L393.671 452.122L395.708 450.614L395.345 449.804L395.987 447.138L397.41 448.576L398.652 448.506L401.931 447.068L402.224 446.733L400.954 445.588L399.936 444.834L398.61 444.164L397.661 441.553H399.866L400.159 443.201L401.415 444.038L403.396 443.047L404.442 441.623L406.298 441.749L406.521 443.815L405.991 444.541V445.546L405.838 445.686L406.228 445.448L410.163 443.787L413.386 442.042L417.809 439.389L420.558 438.189L424.046 434.782L428.372 431.25L430.214 429.952V429.77L429.265 429.547L426.209 426.392L425.888 424.619L427.716 422.12L429.99 420.891H430.855L431.832 422.846L431.148 424.549L431.497 424.94L434.511 425.038L433.702 426.518L432.069 427.16L430.925 428.416L431.972 427.369L435.111 426.099L442.534 422.65L444.78 422.455L444.348 422.05L443.26 420.11Z" fill="#A2C5D3"/>
<path d="M315.784 277.723L319.97 219.199L321.17 200.156L292.887 198.104L292.106 198.048L259.582 195.089L220.541 190.119L210.551 266.973L256.331 272.641L301.692 276.871L315.784 277.723Z" fill="#A2C5D3"/>
<path d="M130.447 70.9072L129.498 74.6347L130.81 77.6084L133.921 80.3726L134.409 83.4999L130.628 87.8277L127.81 92.6861L126.331 94.0124L126.414 95.3666L124.852 97.6143L122.661 98.3123L119.284 103.213L119.131 106.507L121.559 107.513L122.521 109.649L121.726 110.556L121.377 112.343L118.838 117.453L111.471 149.814L132.498 154.477L152.939 158.609L194.589 165.757L201.928 118.374L201.3 118.304L199.835 114.507L198.97 113.222L197.784 113.613L195.245 116.601L187.263 115.093L185.408 116.154L185.338 116.14L179.464 114.772L177.943 116.964L175.473 114.493V110.751L175.152 108.322L173.227 107.15L170.855 103.952L168.622 95.2689L169.055 92.4488L168.664 90.4384L167.297 89.0703L164.367 91.0248L161.59 92.4208L160.069 89.9498L158.674 89.4472L159.162 85.4823L165.371 70.5582V69.6228H162.748L162.692 69.5251L161.52 67.766H160.753L158.534 64.8761V62.9775L155.213 55.9133L153.595 55.313L150.232 50.8315L151.655 46.5735L148.418 40.0817L148.446 39.9421L152.576 20.9972L140.884 18.5122L129.833 67.3891L130.447 70.9072Z" fill="#A2C5D3"/>
<path d="M429.167 238.8L426.488 238.214L424.144 233.97L421.842 231.666L422.344 229.307L424.702 227.045L424.758 226.291L423.809 224.951L423.181 225.649L421.088 225.021L418.591 222.438H390.322L351.951 221.377L320.724 219.646L316.566 277.765L375.588 280.292L429.6 280.376L429.167 238.8Z" fill="#A2C5D3"/>
<path d="M152.507 46.5037L151.112 50.692L154.084 54.6569L155.786 55.2851L159.316 62.81V64.6109L161.144 66.9843H161.953L163.181 68.8271H166.167V70.7118L159.93 85.6778L159.526 88.9168L160.6 89.2937L161.884 91.4018L163.991 90.3408L167.409 88.0512L167.521 88.1768L169.39 90.0476L169.865 92.4349L169.418 95.227L171.581 103.604L173.772 106.563L175.878 107.848L176.269 110.724V114.172L177.832 115.736L179.116 113.893L185.283 115.317L187.125 114.27L194.938 115.749L197.324 112.943L199.292 112.273L200.547 114.186L201.873 117.564L202.054 117.592L203.812 108.169L254.49 115.177L298.846 119.784L300.563 101.984L305.097 43.7255L258.522 38.8393L210.845 32.0682L153.344 21.1509L149.242 39.984L152.507 46.5037Z" fill="#A2C5D3"/>
<path d="M402.739 173.84L401.595 173.994L399.753 173.282L398.93 170.895L397.995 169.889L392.595 167.935L392.065 166.972L390.6 166.539L389.344 167.083L388.465 166.637L387.656 167L387.056 166.651L386.233 167.013L385.661 166.609L384.838 167.181L383.582 166.678L382.075 168.354L380.163 168.451L378.294 166.678L376.801 166.497L373.829 163.691L340.62 162.295L296.138 159.237L292.957 197.322L322.007 199.431L320.779 218.85L351.978 220.595L390.321 221.642H418.06L415.004 216.714L413.078 213.308L413.33 212.149L412.451 211.269H412.353L412.283 211.102L411.655 210.474H412.032L410.623 207.025L411.237 205.057L410.553 202.209L410.706 199.849L409.604 199.249L409.241 193.748L406.786 189.351V189.309L406.604 186.098L404.693 182.342L403.535 179.02V177.791L403.004 176.297V174.315L402.739 173.84Z" fill="#A2C5D3"/>
<path d="M56.6628 198.649L118.042 290.344L118.949 288.389L119.382 285.946L118.935 281.66L119.842 269.36L123.33 268.76L126.832 270.086L127.837 272.376H129.163L131.088 270.044L134.046 254.757L152.408 159.307L132.33 155.245L111.289 150.582V150.596L110.521 150.414L70.0158 140.739L55.7559 195.745L56.6628 198.649Z" fill="#A2C5D3"/>
<path d="M335.388 104.176L375.768 106.018L401.26 106.367L401.33 104.929L401.079 99.9035L398.526 93.3838L398.874 88.2741L398.009 85.9287L397.995 85.8589L397.395 73.6432L396.265 71.4513L393.851 63.3122L394.312 62.2651L394.577 57.9791L393.837 56.6808L394.814 54.1818L392.833 48.1507L344.569 46.7546L305.878 43.7949L301.385 101.663L335.388 104.176Z" fill="#A2C5D3"/>
<path d="M118.112 117.146L120.623 112.092L120.986 110.193L121.6 109.509L120.972 108.127L118.321 107.024L118.503 102.947L122.158 97.6422L124.349 96.9442L125.605 95.1432L125.521 93.6773L127.195 92.1835L129.986 87.367L133.572 83.2626L133.195 80.7636L130.153 78.0831L128.8 75.0117L102.498 68.6735L100.057 69.5391L95.1592 68.7293L93.75 68.0173L92.5081 69.0225L89.4943 68.6595L85.6991 69.0784L84.8619 69.7205L80.8016 69.3296L80.1039 67.9056L79.3365 67.78L75.3739 68.9527L73.9786 67.9894L71.774 68.7991L71.5647 66.9284L69.7927 66.007L68.3974 65.8115L67.5602 64.8901L64.9789 65.1414L63.9184 64.4294H63.1092L62.0766 65.2112L57.0117 65.8534L50.8724 61.9444L51.877 56.8068L51.5421 53.3864L48.9329 50.3708L45.5842 50.4546L45.0958 49.1004L45.4168 48.1231L45.0819 47.7462L44.5656 47.802L43.561 48.9887L41.8169 48.7514L41.3843 47.7881L40.896 47.7462L40.1425 48.3884L38.7891 47.104V50.1335L37.6031 51.3202L36.6822 54.2519L36.5985 56.2902L32.6219 67.1657L21.013 94.7384L18.0549 98.9964L16.8689 98.9266L16.9387 100.476L12.3621 106.745L12.1249 109.383L12.976 110.5L13.0877 112.915L11.9575 113.948L10.9668 116.42L11.0505 121.278L11.9993 123.581L69.8345 139.888L110.703 149.646L118.084 117.187L118.112 117.146Z" fill="#A2C5D3"/>
<path d="M301.316 102.444L299.6 120.258L296.209 158.455L340.663 161.499L374.15 162.923L377.15 165.743L378.643 165.924L380.457 167.655L381.713 167.586L383.359 165.743L384.741 166.287L385.676 165.631L386.331 166.106L387.099 165.771L387.713 166.12L388.48 165.771L389.373 166.217L390.559 165.701L392.61 166.315L393.141 167.292L398.443 169.205L399.615 170.489L400.382 172.681L401.694 173.184L402.405 173.1L401.959 172.011L401.722 170.992L400.508 169.861L401.443 165.813L402.894 161.457L402.391 160.019L401.233 159.656L400.745 157.729L401.708 157.255L401.763 156.668L400.619 155.356L400.745 153.401L402.656 153.485L402.824 119.309L401.68 117.857L399.294 117.299L398.903 115.54L397.354 113.264L397.703 111.882L400.452 110.193L401.163 108.615L401.233 107.163L375.741 106.814L335.347 104.971L301.316 102.444Z" fill="#A2C5D3"/>
<path d="M194.464 166.525L153.177 159.447L134.898 254.52L175.055 261.654L209.77 266.875L219.761 190.021L191.576 185.791L194.464 166.525Z" fill="#A2C5D3"/>
<path d="M220.247 189.295L259.664 194.307L292.175 197.253L295.356 159.181L295.412 158.4L298.775 120.58L254.39 115.959L204.452 109.062L202.764 118.095L195.299 166.273L192.467 185.135L220.247 189.295Z" fill="#A2C5D3"/>
<path d="M69.738 0L68.5659 0.376942L69.8775 4.67688L70.0449 4.3139L71.3565 5.47265V9.06058L70.31 8.79532V12.467L68.4264 8.15313H68.2311L67.7427 11.5456L65.5102 14.0306L65.5939 14.1423L67.5613 12.7183L68.3706 13.3745L67.8404 12.7183L68.2031 9.11642L69.2915 12.0342L70.7844 13.6258L70.2403 16.5017L70.0728 16.0968L70.1287 18.2468L71.217 19.5312L70.8403 21.2903L69.7938 21.1925L68.0078 22.8958L67.8264 25.0597L66.7102 25.7019L67.4636 27.9915L66.473 27.6564L66.5288 29.4853L66.3334 32.431H65.1893L65.1056 33.3524L63.8777 33.8829L63.5289 32.808L63.4312 32.7382L63.3475 33.2826L61.408 35.1255L60.9057 35.2092L60.2639 35.9491H59.2035L58.8128 34.944L58.3105 35.9352L57.9477 34.6368L56.6222 37.0241L56.9152 33.7992L53.9711 34.5949L56.4547 32.3054L58.3384 32.6683L58.5337 32.5287L58.45 30.644L59.6639 29.4294L57.4454 29.6109H55.0873L55.2269 28.159L57.1105 26.1905L57.4733 25.2691L60.7801 22.8399L61.1429 20.8994L63.501 20.299L62.901 22.0162L63.78 21.0111L64.3521 20.4945L64.4219 19.4195L64.2405 18.7494L63.9196 19.4474L63.7103 16.2504L64.5056 15.8037L64.4637 15.7478L63.7521 15.8595L63.0126 19.7267L62.1336 15.8037H62.0638L60.6546 18.0653L60.4174 14.5891L57.8919 14.6728L53.3432 12.4391L49.1573 10.7359L49.1015 10.68L42.3482 4.10448L42.0134 4.0626L41.9855 4.13241L42.6412 5.44472L40.7994 7.58073L40.4646 9.82843L40.3809 13.193L41.5808 14.9939L42.0552 16.8926L41.2599 22.2955L41.4273 25.4227L41.6924 29.5411L41.4134 30.2671L41.4692 30.2112L43.2133 32.1518L46.4365 33.9248H42.3622L41.7762 35.5024L40.8971 35.0138L40.8274 36.5634L41.7343 36.8147L42.8087 36.4936L44.3435 39.2858L42.2785 38.8251L41.3576 42.064L42.1947 45.7915L42.5994 45.6659L44.483 47.0061L45.4039 46.9224L46.3109 47.9415L45.9342 49.0863L46.1295 49.6587L49.2829 49.5749L52.2967 53.0651L52.6735 56.8485L51.7386 61.5673L57.1942 65.0296L61.7708 64.4572L62.8452 63.6474H64.1568L65.1893 64.3315L67.8822 64.0663L68.7892 65.0714L70.031 65.239L72.3053 66.4256L72.4449 67.71L74.0913 67.1097L75.5145 68.087L79.2818 66.9701L80.6213 67.1935L81.319 68.5896L84.6258 68.9107L85.3793 68.3243L89.4954 67.8636L92.2721 68.1987L93.6534 67.0958L95.4115 67.9613L99.9881 68.7292L102.458 67.8496L128.801 74.2018L129.638 70.8791L129.024 67.375L140.103 18.3445L119.773 13.5979L91.9372 6.56159L69.738 0Z" fill="#A2C5D3"/>
<path d="M478.461 167.293L476.648 162.309L476.745 159.949L478.099 157.157L477.708 156.445L475.782 154.979L475.629 152.899L459.681 153.499L427.812 154.295H403.436V154.309L403.032 154.295H402.641V154.267L401.483 154.225L401.427 155.077L402.571 156.403L402.459 157.757L401.664 158.148L401.887 159.042L403.004 159.377L403.729 161.457L402.194 166.05L401.371 169.596L402.432 170.573L402.725 171.802L403.311 173.24L403.785 174.105V176.158L404.315 177.651V178.894L405.431 182.049L407.385 185.888L407.566 189.127L410.022 193.525L410.357 198.76L411.529 199.389L411.347 202.139L412.059 205.085L411.459 206.983L412.882 210.473L435.347 210.571L459.206 209.51L471.904 208.798L473.606 210.096L474.136 211.534L475.001 212.4L476.006 212.944L476.313 212.637L476.382 210.92L475.685 210.013L476.787 208.337L479.187 207.542L479.899 206.69V204.596L481.503 202.334L481.838 201.999L481.922 199.207L481.266 198.202L480.401 197.937L479.257 196.261L480.233 192.352L483.136 191.57H485.215L488.731 190.063L490.084 188.304L490.182 186.196L491.187 184.995L492.275 182.314L492.191 180.248L489.931 177.414H488.884L487.866 176.172L488.047 174.79L486.736 173.477L484.154 172.137L484.74 171.425L483.791 169.373L481.029 168.772L478.475 167.362L478.461 167.293Z" fill="#A2C5D3"/>
<path d="M394.702 56.625L395.372 57.7838L395.093 62.4607L394.688 63.3681L397.005 71.1862L398.163 73.4339L398.177 73.5177L398.791 85.7613L399.67 88.1626L399.321 93.2583L401.86 99.7361L402.125 104.916V104.93L401.944 108.797L401.079 110.737L398.386 112.385L398.205 113.111L399.642 115.233L399.949 116.643L402.125 117.145L403.618 119.03V119.17L403.437 153.499H427.799L459.654 152.717L475.49 152.117L474.639 148.557L474.472 146.044L472.686 143.601L470.3 143.015L465.542 139.706L465.026 136.844L459.486 134.108L459.333 133.102H456.584L454.575 130.715L452.663 129.473L453.291 124.866L452.51 123.47V123.414L452.956 118.527L453.821 116.978L453.584 114.856L452.705 113.906L450.933 113.613V111.687L450.947 111.645L453.472 106.409L458.565 103.045L458.203 91.206L459.333 91.7086L459.556 91.5411L459.64 90.5499L460.84 89.7401L461.9 90.6616L461.091 89.1538L465.095 86.2499L467.844 82.9831L469.239 82.2711L473.355 77.1056L478.923 71.982L482.425 70.0972L487.922 67.7239L493.769 64.2616L491.02 64.7782L488.327 64.8759L487.378 63.3542L486.346 62.684L477.569 63.759L476.676 61.2461L475.63 61.1902L474.276 61.8185L470.956 64.6106H467.132L465.026 63.6055L464.774 62.1675L461.398 61.4834L460.798 59.8919L460.435 59.2218L459.821 59.7662L457.296 59.864L448.589 55.0195H445.994L445.366 54.4751L442.994 55.4663L442.268 56.639L439.143 57.4068L437.594 57.1695V55.4663L437.175 54.9358H431.887L431.538 53.7072H429.627L428.538 54.0981L426.041 52.3391L426.348 50.943L425.859 48.9885L425.218 47.9833L425.036 45.3028L424.213 42.734L422.581 41.4775H420.557L420.655 48.5278L393.67 48.1787L395.651 54.1959L394.702 56.625Z" fill="#A2C5D3"/>
<path d="M413.915 213.182L415.673 216.309L419.078 221.796L421.52 224.337L422.929 224.755L423.892 223.694L425.566 226.068L425.454 227.408L423.068 229.711L422.706 231.415L424.785 233.495L424.813 233.551L427.003 237.516L429.947 238.158V238.479L430.394 280.766L430.561 289.869L464.481 289.268L499.642 287.495L501.233 289.98V292.214L499.656 293.596L497.577 297.394L506.466 296.751L507.303 295.062L508.251 294.671V294.49L507.289 293.596L506.312 291.977L508.433 292.228L508.698 292.005L507.331 290.539L508.893 289.98L508.949 289.478L508.433 288.626V287.537L507.777 286.881L508.056 285.485H509.507L510.414 286.379L510.149 287.244L510.358 287.412L510.763 286.909L511.782 284.131L513.219 285.066L513.498 284.913L514.433 281.674L513.526 280.766L514.502 278.798L514.614 278.323L513.805 277.834H511.279L509.898 276.341L508.251 272.864V270.91L508.977 270.365L509.033 269.57L507.596 267.964L506.8 265.744L504.54 262.296L500.368 261.165L493.712 254.771L493.322 252.426L495.778 245.753L495.401 243.966L496.489 242.974V242.234L494.285 241.048L491.815 240.475L488.634 241.606L487.238 239.149L487.782 237.418L487.224 235.533L479.787 228.232L477.778 226.877L475.518 221.516L474.443 216.644L475.588 213.615L474.527 213.042L473.467 211.967L472.936 210.585L471.653 209.608L459.249 210.306L435.361 211.353L413.566 211.269L414.18 211.884L413.915 213.182Z" fill="#A2C5D3"/>
<path d="M293.138 373.466L300.072 286.183H300.756L301.245 277.611L256.232 273.423L210.438 267.755V267.769L195.271 376.105L208.276 377.92L209.504 368.957L235.861 372.475L234.717 371.205L235.024 368.008L235.233 368.022L265.623 371.205L293.138 373.466Z" fill="#A2C5D3"/>
<path d="M60.4436 30.4903L61.4482 29.6108L62.7737 30.4344L62.4668 30.8253L62.997 30.225L63.8063 28.6893L63.7644 27.754L63.6249 27.8517H61.5319L62.6063 26.5394L61.9645 25.9809L63.4853 24.4592L63.7225 25.7017V24.6128L63.4435 23.5518L63.2761 23.6914L62.3272 25.1991L60.5413 25.3806L59.0902 26.0228L57.0391 28.2286L60.7227 27.754L59.9413 29.15L60.1645 28.9406L60.4436 30.4903Z" fill="#A2C5D3"/>
<path d="M59.8172 32.4591V32.4451L60.2219 31.2026L59.7754 31.803L59.8172 32.4591Z" fill="#A2C5D3"/>
<path d="M61.9241 32.4033L62.0916 32.4312L62.1474 31.2026L61.8125 31.6215L61.9241 32.4033Z" fill="#A2C5D3"/>
<path d="M68.6914 16.7252L68.524 16.0132L69.4589 14.9521L68.5938 14.994L68.3984 16.4739L68.6914 16.7252Z" fill="#A2C5D3"/>
<path d="M64.9097 7.94383L64.4492 8.85128L64.7422 9.7727L64.9655 10.0519L65.3701 9.95419L65.2445 7.87402L64.9097 7.94383Z" fill="#A2C5D3"/>
<path d="M67.9371 20.6479H68.537L68.7882 19.4473L67.965 18.0791L67.1836 19.196L67.9371 19.7963V20.6479Z" fill="#A2C5D3"/>
<path d="M63.0403 8.40455L63.3473 7.44125L62.5659 5.8916L62.0078 5.93348L62.2171 7.73443L63.0403 8.40455Z" fill="#A2C5D3"/>
<path d="M66.9055 15.0917L66.0684 14.8125L66.9893 16.069L66.9055 15.0917Z" fill="#A2C5D3"/>
<path d="M66.9328 6.24057L67.2398 6.17077L66.9189 5.45877L66.584 5.375L66.6537 6.36622L66.9328 6.24057Z" fill="#A2C5D3"/>
<path d="M66.2632 23.2866L66.1934 20.5503H66.012V21.5834L63.9609 23.161L64.7563 23.8171L65.1469 23.2866H66.2632Z" fill="#A2C5D3"/>
<path d="M64.9378 6.64527L65.3704 6.50566L65.2448 5.19334L64.9937 5.12354L64.5332 5.76573L65.1332 6.07287L64.9378 6.64527Z" fill="#A2C5D3"/>
<path d="M65.0765 16.9482L64.6719 17.7999L65.1463 18.1489L65.3277 16.9482H65.0765Z" fill="#A2C5D3"/>
<path d="M65.0064 25.0459L64.8809 26.6793L65.1041 26.791L65.1739 25.0459H65.0064Z" fill="#A2C5D3"/>
<path d="M64.2684 30.6161L64.2266 30.9372H64.5335L65.0777 30.6161L64.9103 28.8291L64.2684 30.6161Z" fill="#A2C5D3"/>
<path d="M551.061 397.688L549.582 397.074L547.209 394.407L547.726 391.378L548.019 391.35L590.38 386.91L589.948 385.528L588.622 384.216L588.134 382.82V382.736L588.65 377.291L586.543 372.265L587.003 369.878L587.269 366.555L589.166 363.261L589.055 362.618L587.52 361.711V358.835L586.013 357.23L583.418 351.757L572.171 311.787L533.033 315.221L533.884 316.534V316.659L532.74 375.532L536.521 404.124L536.912 403.915L538.28 404.012L538.768 404.347L539.117 404.292L540.735 401.22V399.14L541.991 397.87L543.596 398.456L546.707 404.306V405.394L544.991 406.553L546.4 406.386L550.628 405.004L551.368 404.599L551.702 398.54L551.061 397.688Z" fill="#A2C5D3"/>
<path d="M643.527 384.998L642.188 384.286L640.625 385.277V387.134L641.867 389.005L641.392 393.193L639.048 393.849L637.932 392.621L637.458 390.038L593.576 392.942L590.687 387.679L548.396 392.104L548.047 394.17L550.056 396.418L551.563 397.046L552.498 398.303L552.149 404.809L552.498 404.404L561.916 401.988L570.051 401.542H570.079L577.264 403.231L577.32 403.273L584.743 407.643L586.892 408.355L589.013 410.295L588.943 412.445H590.548L592.222 411.566L594.427 411.649L596.073 410.993L598.557 409.276L601.319 406.693L602.561 406.233L603.161 406.735H604.026L604.236 406.386L603.915 405.59L603.287 404.962L603.552 403.873L605.533 402.784L610.221 402.407L610.947 403.315L611.714 403.399L613.835 404.32L616.542 405.953L617.63 407.489L618.537 408.48L621.147 409.779V411.929L623.351 413.422L624.244 413.52L625.807 414.888L626.379 416.187L627.272 416.368L628.012 418.323L628.263 418.532L629.002 417.708L632.002 417.82L632.49 419.202L633.523 420.04V421.171L636.062 423.097L636.244 431.795L634.709 436.751L635.546 437.77L635.351 441.009L634.723 442.112L635.197 442.936L637.262 445.002L637.332 445.365L638.309 444.918L638.895 442.279L636.286 441.218L636.467 440.102L639.355 439.655L640.206 442.112L640.486 442.265L640.569 440.646L642.132 441.065L642.844 442.014L642.718 442.88L640.165 446.579L639.983 447.571L638.518 449.218V449.874L641.699 453.155L646.346 460.079L648.006 462.02V462.327L648.034 462.09L649.318 461.406V460.401L648.718 459.088L650.113 457.706L650.643 458.921L651.341 459.409V463.779L649.988 463.095L649.708 463.402L650.755 464.603L651.508 466.543L652.346 466.125L654.606 467.297L656.559 469.349L656.587 469.433L657.969 473.873L660.327 477.517L660.801 476.763L663.536 476.26L666.661 477.53L666.94 479.136L669.843 482.487L669.94 483.464L672.061 486.075L671.266 486.633V488.574L673.331 489.649H674.433L676.847 488.043L678.382 488.35L679.149 488.629L680.893 487.345L681.131 486.493L682.372 486.801L684.27 485.46L685.289 483.645L685.889 481.188L686.014 479.834L686.14 478.312L686.823 477.572L686.963 476.428L687.228 475.827L686.544 469.573L686.196 460.359L685.317 454.453L684.744 453.029L678.954 443.285L674.391 435.299L672.452 432.367L672.438 432.325L671.266 429.1L671.071 425.75L671.88 425.485V425.066L670.987 423.279L667.485 419.761L660.801 411.217L655.764 402.002L651.969 392.551L651.453 389.396L650.392 388.516L649.988 385.389L647.155 385.626L643.527 384.998Z" fill="#A2C5D3"/>
<path d="M651.243 357.635L650.49 354.689L648.369 350.612L644.867 348.728L644.588 346.229L641.532 340.519L637.192 338.522L634.765 335.898L634.667 334.669L632.476 332.477L630.928 332.044L629.03 330.537L628.067 328.61L626.295 327.312L625.081 327.144L622.681 325.567L618.886 320.96L618.537 319.466L616.012 316.185L613.807 316.436L608.184 312.932L607.961 311.494L609.286 308.451L610.891 307.613L610.933 306.636L593.813 309.051L592.166 309.274L572.967 311.704L584.157 351.506L586.669 356.783L588.315 358.514V361.264L589.766 362.116L590.003 363.414L588.036 366.793L587.771 370.004L587.366 372.182L589.459 377.166L588.929 382.722L589.306 383.783L590.631 385.11L591.259 387.092L594.022 392.118L638.099 389.214L638.671 392.258L639.313 392.956L640.667 392.579L641.057 389.2L639.844 387.371V384.844L642.146 383.364L643.792 384.23L647.183 384.83L649.876 384.607L649.332 380.558L648.857 378.702L650.908 373.187L651.438 367.84L652.22 366.891V365.55L649.666 364.699L652.122 364.294L655.638 359.087V358.235L655.15 358.012L651.243 357.635Z" fill="#A2C5D3"/>
<path d="M531.958 375.546L533.088 316.757L532.139 315.305L499.182 317.539L499.615 320.164L497.843 320.764L495.261 324.505L495.54 329.14L493.95 330.411H492.387L490.071 334.725L490.964 335.856V336.944L487.922 338.382L486.527 344.204L487.81 345.391L486.164 346.312L486.192 346.48L487.713 347.471V348.588L486.973 349.16L487.336 350.78L488.703 352.874L488.215 355.764L487.127 357.118L486.68 358.193L488.02 364.182L489.178 365.131L488.731 366.653L490.782 368.803V372.265H489.401L490.699 374.066L485.285 381.661L483.22 385.793L481.811 395.72L513.372 393.961L513.247 395.747L512.354 396.99L511.614 400.787L515.828 406.777L515.563 407.921L516.512 409.345L516.93 409.834L517.195 409.876L519.428 407.544L519.777 407.489L519.86 406.148L520.739 405.799L521.549 406.428L528.455 404.236L530.618 405.59L534.748 405.506L535.795 404.599L531.958 375.588V375.546Z" fill="#A2C5D3"/>
<path d="M647.587 304.709L647.489 302.141L645.019 299.907L644.043 301.121L642.871 300.619L643.066 299.265L642.954 299.125L622.89 301.024L616.472 304.807L615.313 304.905L611.728 306.454L611.644 308.102L609.9 309.023L608.77 311.606L608.909 312.458L613.988 315.627L616.36 315.347L619.262 319.117L619.611 320.597L623.211 324.967L625.36 326.377L626.601 326.558L628.694 328.08L629.657 330.02L631.29 331.319L632.894 331.765L635.434 334.32L635.531 335.563L637.666 337.866L642.103 339.905L645.354 345.978L645.605 348.225L648.954 350.04L651.242 354.452L651.87 356.909L655.024 357.202L655.707 355.904H656.335L657.703 354.759L658.149 352.986L660.94 351.143L661.149 349.454L659.893 348.504L661.149 347.388L661.944 347.792L662.837 347.513L664.386 345.698L667.707 344.121L669.005 342.18L669.088 341.51L673.246 337.699L673.232 337.601L672.27 336.749L673.567 334.976H674.656L674.837 335.2L675.256 334.711H676.302L676.776 333.566L678.716 331.779L678.465 327.144L679.218 324.98L682.413 319.48L684.604 317.47L685.985 316.771L665.154 302.196L647.587 304.709Z" fill="#A2C5D3"/>
<path d="M488.872 174.51L488.69 175.934L489.262 176.632H490.309L492.974 179.955L493.072 182.454L491.872 185.4L490.951 186.489L490.867 188.597L489.235 190.705L485.384 192.366H483.249L480.891 192.994L480.109 196.108L480.891 197.252L481.77 197.518L482.705 198.983L482.621 202.334L482.091 202.865L480.695 204.847V206.969L479.649 208.226L477.305 209.007L476.649 209.971L477.179 210.655L477.081 212.972L476.426 213.642L475.268 216.7L476.286 221.307L478.421 226.347L480.305 227.645L487.937 235.1L488.607 237.432L488.09 239.051L488.983 240.643L491.774 239.651L494.565 240.308L497.285 241.759V243.309L496.267 244.245L496.588 245.808L494.132 252.495L494.439 254.38L500.774 260.467L505.029 261.612L507.527 265.423L508.294 267.559L509.843 269.29L509.732 270.784L509.048 271.301V272.683L510.555 275.894L511.629 277.039H513.457L513.234 275.712L517.085 272.138L523.266 274.819L524.187 274.637L524.466 272.99L522.987 271.412L523.378 268.118L524.619 267.503L525.498 267.936L525.945 267.057L529.098 266.54L529.126 266.191L527.842 264.292L527.731 263.064L529.67 260.676V260.118L528.652 257.954H529.768L529.852 252.063L533.214 247.358L534.373 243.644L535.754 242.095L535.977 240.224L535.168 238.507L535.461 237.627V237.194L533.354 234.123L533.368 232.168L534.233 227.645L530.647 183.641L529.252 180.82L528.219 177.288L525.205 173.198L525.122 169.442L485.411 171.872L485.384 171.886L487.197 172.835L488.872 174.51Z" fill="#A2C5D3"/>
<path d="M534.149 233.872L536.256 236.957V237.753L536.018 238.451L536.8 240.084L536.507 242.43L535.07 244.049L533.939 247.721L533.898 247.777L530.633 252.328L530.549 257.996L535.307 257.479L535.502 258.638L535.893 258.708L536.046 258.359L535.516 257.228L536.004 255.916L537.414 256.795L538.865 256.446L540.539 257.047L543.204 258.694L544.613 256.488L548.046 254.324L550.585 257.116L551.632 255.734L551.911 253.277L555.915 250.848L556.153 252.398L557.562 253.291L559.976 253.138L560.757 252.677L560.841 249.787L563.157 246.381L567.064 242.639L566.98 241.243L568.18 237.418L570.329 238.381L575.798 234.709L575.519 233.551L574.11 231.568L575.045 229.795L569.31 180.025L569.282 179.815L569.268 179.606L569.227 179.243H569.241L569.199 178.782L541.307 181.714L539.855 183.068L539.828 183.082L535.181 185.176L531.47 184.073L535.028 227.687L534.149 232.28V233.872Z" fill="#A2C5D3"/>
<path d="M620.447 255.413L619.205 255.106L617.922 253.556H616.694L612.606 248.363L612.689 247.665L611.964 247.218L611.238 246.227L609.438 244.705L609.969 241.466L609.452 240.601L609.55 239.624L608.615 238.004L605.49 236.748L604.75 234.067L604.541 233.732L602.015 235.072L601.443 236.678H600.48L599.211 237.362L599.113 237.292L598.025 236.566L595.583 235.91L594.271 236.454V237.501L591.76 237.278L590.127 235.463L588.244 235.631L584.267 234.947V233.858L582.467 231.066L580.193 230.116L578.588 230.786L576.509 230.703L575.63 230.354L575.03 231.498L576.258 233.216L576.691 235.058L570.398 239.288L568.668 238.493L567.775 241.341L567.872 242.946L563.728 246.911L561.621 250.038L561.524 253.138L560.212 253.905L557.352 254.101L555.426 252.872L555.315 252.132L552.65 253.752L552.385 256.041L550.64 258.359L547.906 255.343L545.185 257.061L543.441 259.769L540.162 257.745L538.822 257.27L537.287 257.633L536.408 257.089L536.38 257.2L536.911 258.345L536.352 259.588L534.818 259.308L534.65 258.345L531.511 258.694L531.999 259.881L531.148 261.305L530.464 260.802V260.956L528.539 263.315L528.609 264.027L529.948 265.996L529.809 267.224L526.474 267.769L525.86 268.997L524.618 268.383L524.116 268.634L523.809 271.147L525.316 272.739L524.883 275.307L523.181 275.642L517.237 273.06L514.07 275.992L514.279 277.192L515.507 277.946L515.228 279.105L514.488 280.613L515.325 281.45L514.167 285.429L513.204 285.987L512.186 285.331L511.684 286.672L531.343 285.401L531.65 284.94L530.464 281.785H534.427L535.027 282.302L554.659 280.557L556.989 279.859L572.254 278.979L576.83 278.267L594.788 277.039L599.615 275.838L605.671 272.138L606.369 271.873L606.815 270.17L608.517 269.681L609.564 268.648L609.662 267.098L611.517 265.94L611.866 264.055L614.657 261.263L617.168 260.397L620.88 255.385L620.447 255.413Z" fill="#A2C5D3"/>
<path d="M588.552 175.223L591.914 170.127V166.399L592.71 164.319L594.607 163.621L596.351 156.794L597.593 156.18L598.919 156.976L598.612 157.925L597.775 158.525L597.9 158.888L598.235 159.07L599.56 158.093L599.895 149.8L598.528 147.831L597.44 144.467V142.303L595.416 138.436V136.816L594.412 134.038L592.5 131.553L590.254 130.771L586.277 133.256L584.156 137.151L583.975 137.989L581.143 141.298L579.482 141.088L576.733 138.422L576.636 135.127L578.143 133.214L579.887 133.033L580.766 131.776L580.947 128.23L581.854 127.309L582.747 127.239L583.389 126.025L583.222 117.718L582.998 116.727L582.049 115.791L580.417 114.828L580.319 112.846L581.268 112.022L582.398 112.524L582.273 111.854L580.626 109.481L580.04 108.141L579.231 107.345H577.403L570.12 104.734L568.934 103.282L566.436 103.031L565.306 103.324L561.399 101.272H560.897L561.357 102.179L558.86 102.082L559.529 102.752L557.157 104.748L557.227 106.033L558.385 107.806L559.864 108.001V109.16L558.218 109.718L556.46 109.635L554.255 111.603L554.339 113.613L554.702 118.835L551.632 123.567L551.702 123.177L550.278 119.91L550.725 117.899L550.265 116.978L550.781 115.847L550.265 114.884L549.623 116.406L548.995 117.034L547.753 119.323L546.4 119.17L546.316 120.175H545.004L545.116 121.054L545.325 123.121L542.688 124.168L542.744 124.936L543.637 126.443L543.539 131.19L542.367 135.169L541.014 137.165L541.935 138.24L542.674 141.535L541.781 143.797L541.614 145.472L543.065 148.362L545.241 152.648L546.33 154.365L546.344 154.421L547.753 160.536V160.564L547.655 168.382L546.846 171.9L545.088 174.72L544.307 177.973L542.479 180.723L542.381 180.807L569.743 177.931L569.938 177.917L569.952 178.112L570.022 179.118L588.161 176.144L588.552 175.223Z" fill="#A2C5D3"/>
<path d="M488.327 96.2179L503.201 99.5406L504.415 100.42L507.931 101.118L508.503 101.537L510.861 101.356L515.34 102.095L516.917 103.785L516.052 104.664L516.387 104.999L519.722 105.614L520.977 106.87L521.075 110.988L520.14 112.999L521.159 113.055L522.177 112.231L523.419 113.334L522.428 116.126L523.126 117.243L523.698 117.383L524.298 116.056L526.81 112.063L528.233 106.73L530.144 105.055L529.726 103.743L530.577 102.207L531.889 104.315L531.721 105.446L533.381 104.19L533.577 101.858L535.572 102.431L536.353 100.867L537.567 101.914L536.772 103.631L535.893 104.078L535.181 105.488L536.074 106.633L536.312 106.521L535.991 106.074L537.093 104.455L538.865 102.863H539.353L539.521 100.783L541.488 98.9961L548.367 98.5633L550.027 95.841L553.641 95.5618L557.102 96.6507L560.674 98.9542L560.813 98.9124L560.646 95.841L561.664 95.5478L565.641 96.5251L566.869 96.3575L569.478 95.7293L571.027 96.0923L572.157 96.1481V95.7433L571.724 95.1848L570.469 95.0173L569.185 94.0819L569.59 92.9371L569.324 92.8394L566.757 92.9371L566.604 91.4573L568.069 90.3963L568.348 90.7732L568.515 90.1868L567.594 89.2515L568.18 89.0839L567.287 88.2603L567.594 86.934L567.664 85.7054H567.05L565.752 86.585L564.259 86.6687L563.827 88.2323L561.553 88.4697L561.274 87.3947L559.836 87.4645L558.929 88.5534L557.841 88.3999L557.688 87.7856L555.316 88.1486L555.218 83.374L555.86 82.1035L554.409 82.9831H552.497L549.162 85.3564L543.637 85.6217L540.163 86.3057L538.572 87.5483L537.316 88.721L535.223 90.145L534.623 91.7505L533.968 89.9076V91.4433L532.182 90.7174H532.042L531.693 92.1414L529.53 90.0891L528.735 89.9635L527.605 91.2618L524.34 91.1501L523.852 89.7541L522.121 88.1206L520.894 86.5989V85.9846L520.07 84.9376L517.949 83.9464L515.005 83.8626L514.043 83.0668H513.052L512.578 83.346L510.708 85.2168L509.899 86.4872L508.475 85.496L508.727 84.2954L509.452 82.3827L512.354 77.8455L513.094 77.664L514.461 76.1283L515.131 74.5926L517.88 74.0481L518.326 73.6991L518.284 73.1826L518.061 72.9731L514.322 73.1407L512.647 73.5595L510.457 74.5647L509.466 75.5559L507.945 77.5383L506.341 78.4179L503.564 81.2938L503.201 82.7597L496.49 86.934L492.918 87.3807L491.495 87.6879L489.499 90.2985L487.839 90.9547L484.783 92.5462L485.718 92.8953L488.327 96.2179Z" fill="#A2C5D3"/>
<path d="M629.476 277.597L627.899 277.486L626.866 278.379L624.634 283.223L622.206 282.19L619.416 284.187L618.802 286.016L617.113 287.37L616.067 286.309L615.983 285.136L615.746 285.08L612.509 287.761L611.965 290.804L607.793 292.926L607.374 293.945L604.402 296.361L601.221 296.807L597.398 299.306L596.7 302.908L595.319 303.858L594.035 303.774L593.044 304.695L592.975 308.367L611.253 305.798L615.118 304.123L616.234 304.039L622.639 300.256L643.303 298.301L643.889 299.041L643.736 300.144L643.805 300.172L644.936 298.748L648.256 301.791L648.34 303.802L665.349 301.373L665.419 301.428L686.781 316.366L690.129 314.524L692.906 313.881H694.552L695.222 314.538L695.683 313.379L696.199 308.981L697.748 305.449L702.561 299.99L706.217 296.877L711.101 294.811L713.389 294.434L714.756 294.867L715.077 295.369L717.533 290.427L716.417 292.144L715.496 290.665L717.31 288.668L717.268 288.501L715.259 288.668L714.422 287.398L713.598 288.794L711.352 289.073L712.454 286.085L713.04 284.661L712.901 282.567L710.431 282.442L712.008 280.864L713.152 281.171L715.356 281.255L716.054 280.822H718.021L719.556 279.37L719.738 276.564L721.063 275.126L722.151 274.945L723.031 274.275L722.626 271.315L720.84 268.23L718.928 268.09L717.896 269.919L717.254 268.62L715.189 268.774L714.226 269.095L712.301 270.31L711.924 269.821H711.45L709.915 270.854L707.082 271.399V269.64L708.101 268.369L709.175 269.123H709.747L711.17 267.35L714.436 265.856L716.249 263.846H718.761L719.514 265.074L720.073 265.34L719.905 264.851L719.668 263.553L717.212 260.83L717.198 260.76L717.045 261.123L715.845 259.378L714.868 258.178L689.557 263.483L654.968 269.905L629.476 272.948V277.597Z" fill="#A2C5D3"/>
<path d="M576.678 229.921L578.45 229.991L580.194 229.265L582.998 230.424L585.063 233.621V234.277L588.287 234.835L590.449 234.64L592.138 236.525L593.491 236.65V235.938L595.528 235.073L598.347 235.827L599.268 236.441L600.286 235.896H600.886L601.374 234.514L604.821 232.685L605.491 233.746L606.146 236.162L609.174 237.376L610.109 239.038L612.676 237.907H613.723L614.058 234.975L615.258 234.333L614.155 231.275L615.188 230.047L615.453 228.176L616.486 225.775L618.439 226.389L618.885 227.981L619.276 227.785L619.918 227.045L620.616 226.906V225.747L619.053 224.518L620.253 223.918L620.169 222.201L621.481 219.981H622.541L622.75 219.129L624.243 217.342L624.341 217.119L625.569 218.25L626.992 216.896H627.508L628.946 215.304L630.746 212.33L631.625 211.926L631.918 210.306L631.471 209.329L632.378 206.076L632.462 201.315L633.411 198.384L632.908 196.68L632.992 194.81L631.597 192.715L633.648 191.585L629.49 166.12L621.844 170.322L618.565 173.003L614.183 178.28L609.537 178.559L606.467 180.346L604.207 181.896L602.644 181.994L600.733 180.695L598.891 181.002L597.398 182.412L594.733 181.296L597.272 179.899L599.756 179.495L599.77 179.355H598.779L597.858 178.783L597.077 179.969H595.793L595.151 179.132L593.379 178.615L590.854 177.526L589.082 177.903L588.287 176.926L570.092 179.899L575.813 229.586L576.678 229.921Z" fill="#A2C5D3"/>
<path d="M572.31 279.761L557.087 280.641L554.771 281.339L534.762 283.112L534.134 282.581H531.595L532.53 285.052L531.776 286.169L511.307 287.482L510.456 288.557L509.549 287.761H509.214V288.403L509.758 289.297L509.633 290.553L508.726 290.874L509.828 292.061L508.684 293.052L507.819 292.954L507.903 293.094L509.047 294.141V295.188L507.889 295.677L507.121 297.184L507.163 297.436L508.558 298.427L507.917 299.544H506.884L507.526 300.2L507.679 301.429L506.256 301.624L505.81 302.336L504.359 302.517L503.884 302.978L504.107 303.313L505.098 303.215L505.824 304.528L504.359 305.714L504.819 307.474L502.824 306.873V306.929L503.173 307.92L502.768 309.805L502.028 309.344L502.112 310.685L501.694 311.369L502.587 312.095L502.321 313.421L503.117 314.119L502.112 315.557L501.135 315.138L500.521 316.66L532.32 314.496L572.421 310.978L592.179 308.479L592.262 304.346L593.741 302.964L595.095 303.062L595.988 302.434L596.686 298.818L600.941 296.054L604.081 295.607L606.732 293.457L607.178 292.354L611.266 290.274L611.783 287.328L615.564 284.215L616.736 284.508L616.834 285.96L617.183 286.309L618.131 285.555L618.745 283.698L622.108 281.297L624.229 282.19L626.224 277.891L627.633 276.676L628.694 276.746V273.046L628.457 273.074L628.694 272.516V272.446L625.638 272.781L625.471 273.66L599.839 276.592L594.872 277.821L576.9 279.063L572.31 279.761Z" fill="#A2C5D3"/>
<path d="M633.787 194.586L633.689 196.582L634.233 198.397L633.256 201.441L633.173 206.188L632.307 209.259L632.74 210.208L632.335 212.47L631.289 212.945L629.559 215.793L627.856 217.691H627.312L625.582 219.325L624.466 218.306L623.475 219.492L623.154 220.763H621.94L620.964 222.41L621.061 224.392L620.517 224.658L621.41 225.37V227.548L620.336 227.771L619.764 228.427L618.396 229.111L617.796 227.017L616.931 226.738L616.22 228.385L615.941 230.382L615.048 231.443L616.234 234.71L614.796 235.477L614.42 238.702H612.843L610.318 239.805L610.262 240.406L610.806 241.299L610.29 244.398L611.852 245.725L612.508 246.632L613.527 247.246L613.429 248.126L617.071 252.775H618.299L619.652 254.394L620.517 254.618L621.508 254.548L621.647 254.352L621.843 254.52L622.54 254.464L622.247 254.869L622.847 255.385L622.205 256.349L623.322 256.865L623.405 258.192L626.977 260.062L628.749 259.993L630.256 258.555L631.108 256.74L633.94 258.443L638.461 256.46L638.656 256.111L637.986 255.693L638.824 253.724L640.316 254.715L644.209 251.895L644.795 252.831L646.316 251.504L646.233 250.318L647.405 248.838L646.191 247.861L647.181 244.608L650.349 239.205L649.986 237.488L651.828 235.561L651.479 234.263L652.749 232.713L652.846 228.19L655.497 229L656.614 230.647L658.679 231.024L659.627 229.865L661.748 222.019L663.897 223.01L664.651 221.098L665.488 220.358L666.743 218.752L667.441 218.138L667.888 216.253L668.892 215.597L668.809 213.182L669.478 211.269L668.697 209.887L669.018 208.435L677.794 213.014L678.115 211.493L678.492 210.027L678.645 209.734L677.962 209.44L678.017 209.287L678.171 208.03L677.39 207.626L677.25 207.137H676.72L675.799 205.755L675.827 205.671L675.897 205.28L674.013 205.573L672.101 204.177L671.194 204.373L670.385 205.643H669.255L667.776 208.17L664.567 208.561L663.102 207.779L660.869 211.032L658.93 210.767L656.362 213.992L655.553 215.43L653.376 217.37L651.842 207.025L636.577 209.566L633.787 192.408L632.726 192.995L633.787 194.586Z" fill="#A2C5D3"/>
<path d="M460.784 90.7312L460.394 90.9965L460.31 91.9318L459.473 92.6299L459.026 92.4344L459.361 103.463L454.087 106.954L451.715 111.868V112.943L453.11 113.166L454.338 114.507L454.617 117.145L454.603 117.187L453.724 118.765L453.306 123.302L454.101 124.712L453.501 129.082L455.105 130.129L456.947 132.307H460.003L460.198 133.591L465.724 136.313L466.254 139.245L470.635 142.275L473.161 142.917L475.24 145.751L475.421 148.473L476.3 152.089L476.356 152.075L476.384 152.424L476.495 152.871H476.412L476.551 154.574L478.323 155.914L478.979 157.143L477.528 160.144L477.444 162.183L479.119 166.818L481.309 168.032L484.351 168.675L485.453 171.076L525.08 168.647L524.843 165.491L525.177 162.992L524.061 161.694V159.363L523.001 158.497L523.489 157.422L522.75 155.831L522.973 155.607L522.178 154.407L523.545 149.827L524.494 146.309L524.145 143.14L523.866 141.66L524.661 138.924L524.382 137.109L526.503 135.434L526.433 134.54L525.889 132.753L526.168 128.928L528.694 122.436L529.28 122.003L530.368 117.941L530.912 117.857L531.4 116.28L530.814 114.869L531.861 114.772V113.725L531.177 113.683L530.549 114.241V115.609L528.931 116.601L528.596 118.374L527.968 119.169L527.242 122.199L524.131 123.176L522.75 126.834L521.005 127.783L520.573 129.151L519.499 130.101L518.606 129.068L518.801 126.066L520.88 123.106L520.698 120.901L523.294 120.175L523.503 118.15L522.624 117.927L521.55 116.224L522.498 113.571L522.15 113.264L521.424 113.85L518.926 113.725L520.28 110.821L520.196 107.205L519.345 106.339L516.01 105.725L514.936 104.664L515.829 103.771L514.95 102.835L510.82 102.151L508.266 102.333L507.611 101.858L504.094 101.16L502.867 100.28L487.881 96.9298L485.23 93.5653L482.816 92.6718L481.937 92.3367L479.635 91.0104V91.8062L477.026 93.0627L476.412 91.6666L477.653 90.2426L477.221 88.9163L478.379 87.5621L478.909 86.4871L477.528 85.4819L476.537 86.4732L476.258 86.0264L474.988 87.227L473.007 88.2183L472.812 87.8134L472.449 88.4416H471.458L471.221 89.2234L465.012 91.5968H462.682L461.914 91.7085L460.784 90.7312Z" fill="#A2C5D3"/>
<path d="M718.328 184.674L715.077 182.189L713.123 181.17L712.258 178.74L709.844 177.931L709.342 174.329L710.291 173.379L710.807 171.914L709.496 170.35V170.224L709.523 170.182L712.161 165.408L712.077 163.453L713.5 161.471L712.565 160.815L710.891 161.08L708.044 159L705.477 154.03H703.663L703.272 152.564L702.045 151.768L639.898 164.04L639.228 159.042L636.005 161.666L635.252 161.75L632.921 164.333L630.229 165.729L634.387 191.166L634.498 191.864L637.219 208.658L652.107 206.173L705.031 195.842L706.035 194.069L707.486 193.008L709.091 192.701L710.333 193.176L711.449 191.808L712.83 191.291L714.351 188.75L715.788 186.684L718.328 184.674Z" fill="#A2C5D3"/>
<path d="M689.753 219.73L690.436 219.101L690.757 217.677L691.246 216.854L692.097 215.555L690.492 214.438L690.018 215.248L689.557 215.988L688.79 215.22H688.009L687.353 215.108L686.767 214.522L686.837 214.215L685.79 213.838L685.148 214.089L683.865 213.978L683.195 213.321L682.651 213.098L682.372 212.107L682.944 211.353V211.032L682.106 210.892L681.269 210.138L680.6 210.222L679.414 209.999L679.232 210.32L678.883 211.674L678.339 214.187L669.563 209.608L669.535 209.761L670.33 211.185L669.591 213.308L669.688 216.002L668.586 216.742L668.153 218.557L667.288 219.325L666.047 220.93L665.321 221.572L664.316 224.071L662.265 223.122L660.34 230.228L659 231.875L656.154 231.373L654.996 229.67L653.601 229.251L653.531 233.006L652.345 234.444L652.694 235.784L650.838 237.725L651.187 239.344L647.88 244.971L647.098 247.567L648.508 248.712L647.043 250.569L647.14 251.839L644.629 254.031L643.987 253.026L640.331 255.665L639.173 254.897L638.978 255.385L639.703 255.846L639.02 257.075L633.885 259.322L631.457 257.857L630.899 259.029L629.071 260.76L626.797 260.858L622.653 258.694L622.569 257.382L621.034 256.67L621.802 255.525L621.774 255.497L617.658 261.068L615.076 261.947L612.593 264.432L612.23 266.428L610.416 267.545L610.332 268.983L608.923 270.393L607.458 270.812L607.025 272.446L606.007 272.864L601.5 275.601L624.802 272.948L624.983 272.055L629.978 271.51L629.713 272.125L654.842 269.123L689.404 262.715L714.436 257.452L713.919 256.419L714.966 256.153L715.175 256.363L715.161 256.195L714.743 253.585L715.929 254.464L714.101 251.518V250.499L713.794 250.15L713.222 250.457L713.738 251.895H712.217L712.036 251.462L711.631 252.077L710.612 250.82L709.259 250.764L709.217 250.89L711.352 253.878L708.589 252.496L708.436 252.202L708.352 252.384L707.585 252.482L705.422 254.939L705.938 252.161V251.225L704.878 250.723L703.078 250.22L702.883 248.531L702.701 248.154L702.352 248.782L700.636 247.777L698.445 248.098L698.808 246.478L700.524 246.255L701.25 246.66L702.729 245.962L703.817 246.451L704.362 247.539V247.916L705.938 248.252L706.217 249.089L706.943 249.424L707.501 250.164L708.52 248.991H708.813L708.785 248.307L707.906 248.991L706.929 247.512L706.329 247.805L706.231 246.129L705.031 246.269L702.924 245.222L699.813 241.425L704.92 244.538L705.52 244.747L706.161 244.44L704.892 243.77L705.408 243.254L704.069 242.583L705.38 242.248L704.822 240.573L706.468 241.913L707.041 240.768L707.641 242.723L708.324 243.17L708.045 242.849L707.975 240.866L707.278 240.796L705.366 239.847L705.966 239.107L704.822 239.037L704.543 238.702L703.413 239.191L701.892 238.325L701.459 237.264L699.673 236.231L697.832 234.654L693.939 231.289L699.031 233.495L699.813 234.542L701.641 235.156L703.148 236.79L703.385 234.765L704.417 236.999L705.771 237.292V234.388L704.376 232.476L706.064 233.09L706.092 232.49L703.678 231.387L702.338 231.219L700.762 230.982L701.027 229.907L699.841 229.67L699.771 229.209H698.822L698.515 230.451L697.525 229.027H695.278L694.134 228.567L693.953 227.673L692.92 227.157L692.557 225.802L692.488 225.761L691.999 226.528L691.148 226.71L690.311 227.352H688.664L687.66 225.914L688.037 223.01L688.609 220.274L688.525 220.148L688.316 219.869H688.33L688.664 219.841L689.753 219.73Z" fill="#A2C5D3"/>
<path d="M730.105 159.028L727.65 144.648L727.008 143.727L727.44 130.59L726.436 129.668L726.91 127.77L724.329 115.526L723.129 114.577L722.166 116.294L721.008 113.446L721.706 111.868L719.013 106.047L719.292 102.542L719.613 101.733L719.097 100.016L719.431 98.1866L717.548 96.2321L717.087 93.2026L717.38 92.0858L716.138 91.29L716.711 89.4751L716.208 88.4141L698.39 92.9234L696.283 92.8396L694.581 94.2218L689.446 99.7921L686.251 105.251L685.609 107.415L680.223 112.734L680.293 115.065L682.037 116.14H683.614L683.74 118.318L682.33 119.24L682.93 119.589L684.27 122.171L683.879 125.326L682.623 125.885L681.103 126.206L679.051 128.845L676.819 131.19L674.391 132.405H671.698L668.866 132.991L667.261 134.401L666.229 134.513L663.41 133.103H659.671L652.569 134.485L646.178 137.78L646.332 140.237L647.783 142.666L649.29 143.099L650.964 146.365L650.057 147.594L648.132 149.283L647.601 151.419L644.155 153.625L643.639 155.091L639.955 158.442L640.569 163.105L702.199 150.931L703.957 152.061L704.264 153.234H705.967L708.66 158.47L711.087 160.257L712.748 159.991L712.818 160.033L714.241 161.01L727.287 165.408L726.952 170.378L727.719 169.205L728.989 167.753L730.022 165.129L728.459 163.091L731.473 160.159L730.105 159.028Z" fill="#A2C5D3"/>
<path d="M655.148 503.595L655.316 504L657.172 503.525L656.851 502.939L655.148 503.595Z" fill="#A2C5D3"/>
<path d="M678.562 494.004L676.637 495.554L678.213 495.498L680.237 494.018L679.874 493.767L678.562 494.004Z" fill="#A2C5D3"/>
<path d="M674.153 497.787L675.758 496.503L674.823 496.293L672.939 497.745L674.153 497.787Z" fill="#A2C5D3"/>
<path d="M687.325 481.188L686.501 485.237L685.65 486.116L685.078 487.931L683.585 489.201L682.943 490.723L681.004 492.678L681.171 493.543L683.529 491.519L686.585 487.47L687.883 484.078L687.408 481.607L687.325 481.188Z" fill="#A2C5D3"/>
<path d="M670.26 497.731L667.763 498.667L666.507 499.169L663.103 501.696L660.047 502.506L660.284 502.939L663.256 502.422L666.465 500.356L669.102 500.021L670.986 499.044L670.009 498.667L670.26 497.731Z" fill="#A2C5D3"/>
<path d="M709.022 193.525L707.808 193.748L706.636 194.614L705.701 196.247L712.231 219.562L721.022 217.691L719.333 211.855L718.566 212.218L715.385 209.706L714.952 208.24L713.32 207.332L713.152 204.01L711.422 202.209L710.459 201.497L709.301 200.422L708.938 197.588L708.896 197.546L709.203 195.465L709.929 193.86L709.022 193.525Z" fill="#A2C5D3"/>
<path d="M708.589 227.436L708.045 226.138H707.25L708.073 228.693L708.799 228.274L708.589 227.436Z" fill="#A2C5D3"/>
<path d="M714.213 161.834L712.874 163.691L712.971 165.603L712.916 165.701L710.404 170.21L711.702 171.76L710.976 173.812L710.181 174.608L710.558 177.344L712.874 178.112L713.767 180.611L715.525 181.547L719.613 184.66L716.362 187.229L715.009 189.197L713.362 191.934L711.925 192.478L710.795 193.846L709.958 195.689L709.734 197.295L710.39 198.034L710.725 199.975L711.632 200.422L713.725 201.734L715.274 202.418L716.892 203.228L716.962 204.107L717.157 204.121L718.19 203.004L719.083 203.451L721.232 203.661L721.036 206.565L721.162 208.198L722.097 207.849L723.352 204.582L724.776 200.282L727.301 197.839L727.776 195.019L727.217 193.888L728.766 191.249V190.412L728.097 189.365L729.199 186.894L728.934 183.822L728.473 177.498H727.106L726.548 177.135L725.655 176.995L724.678 177.652L723.269 175.753L723.939 174.133V173.058L725.515 172.416L726.129 170.783L726.464 165.952L714.213 161.834Z" fill="#A2C5D3"/>
<path d="M714.574 229.725L714.407 230.102L714.923 230.326L714.63 233.104L713.849 232.322L713.528 232.573L714.128 232.811L712.439 236.971L712.523 243.91L713.681 245.822L713.849 245.334L714.184 243.044L713.905 240.922L714.518 240.126L714.323 238.786L715.104 238.395L714.756 238.116L715.718 236.748L716.807 238.241L716.821 238.102L716.904 235.519L716.639 233.718L717.197 231.554L718.146 230.005L718.23 228.12L718.258 228.036L715.077 229.153L714.574 229.725Z" fill="#A2C5D3"/>
<path d="M654.939 214.927L655.721 213.531L658.581 209.929L660.493 210.18L662.837 206.76L664.706 207.737L667.288 207.43L668.795 204.847H669.953L670.72 203.661L672.269 203.326L674.222 204.75L676.845 204.345V204.61L676.636 205.601L677.138 206.341H677.836L678.045 207.081L679.022 207.57L678.841 208.966L679.329 209.175L680.627 209.413L681.534 209.315L682.455 210.152L683.724 210.362V211.618L683.236 212.275L683.306 212.512L683.641 212.651L684.213 213.224L685.036 213.28L685.789 213L687.743 213.699L687.617 214.257L687.743 214.369L688.106 214.438H689.11L689.403 214.718L690.226 213.294L690.24 213.308L690.268 213.266L693.212 215.304L691.51 217.915L691.147 219.52L690.087 220.483L689.752 220.525L690.101 221.014V221.14L689.864 221.447L690.087 221.824L689.361 223.75L689.668 225.509L690.254 225.942L691.426 224.993L692.291 224.225L693.143 224.518L694.077 225.733L694.887 226.542L696.142 227.143L696.449 226.989L697.51 227.254L698.375 226.808L699.84 227.129L701.319 228.357L702.142 228.483L702.603 228.26L704.012 229.377H704.096V228.958L703.775 227.855L702.365 226.068L702.017 223.653L700.691 222.48L699.477 221.168L698.849 218.166L697.984 217.105L698.473 215.807V213.964L698.821 213.07L698.207 212.693L699.31 211.702L698.612 210.781L698.78 210.194L697.859 209.273L695.808 208.324L698.194 207.653L698.682 205.853L699.533 204.764L700.314 205.113L702.24 202.446L701.361 201.301L702.324 199.975L704.319 199.445L704.096 201.748L704.417 202.502L704.012 202.991L704.612 203.968L702.951 204.205L702.1 205.28L701.207 207.249L701.361 208.575L701.905 209.831L702.868 208.868L703.44 211.325L701.877 212.247L701.166 211.535L700.747 212.009L700.593 213.852L700.747 214.117L701.277 213.363L702.338 212.065L703.663 213.252L703.51 215.653L702.491 214.76L701.975 215.262L701.933 216.937L702.114 216.435L703.872 216.574L703.97 217.286L706.217 218.236L703.593 218.71L703.217 219.339V219.799L704.5 220.567L702.993 221.363L703.914 222.494L704.863 223.527L705.017 224.504L706.426 225.202L707.165 224.867L707.486 224.602L707.123 224.002L708.016 221.949L709.342 222.941L708.965 224.141L709.356 224.588L712.565 225.258L710.151 225.858V226.598L711.658 225.663L711.407 227.562L712.216 228.064L711.742 228.888L711.923 230.424L712.44 230.186L712.816 229.335L714.03 229.139L714.616 228.469L718.565 227.101L718.802 226.235L719.472 225.077L719.639 223.206L720.602 221.977L721.132 222.494V218.487L711.672 220.483L711.574 220.12L705.003 196.652L652.623 206.886L653.949 215.807L654.939 214.927Z" fill="#A2C5D3"/>
<path d="M708.896 231.359L709.273 230.452L709.05 229.014L708.422 229.307L708.896 231.359Z" fill="#A2C5D3"/>
<path d="M751.272 139.594L738.854 142.428V143.015L737.514 143.461L737.068 142.819L728.473 144.788L730.831 158.609L732.645 160.117L729.505 163.174L730.538 164.5L734.961 160.801L736.579 159.572H737.221L739.328 156.836L740.682 156.934L743.221 155.97H745.035L749.667 153.611L752.039 152.843L753.016 151.866L753.909 152.159L753.672 151.14L754.021 150.191L751.272 139.594Z" fill="#A2C5D3"/>
<path d="M763.759 32.4031L760.955 31.356L760.104 28.0334H758.318L752.388 44.8282L753.002 50.3428L751.481 52.4788L751.146 56.332L752.192 59.3056L752.988 59.515V61.2881L751.523 65.4065L750.183 66.663L749.123 68.4639L748.746 75.7794L746.248 74.7463L745.453 74.9557L755.792 106.94V106.968L756.295 110.318L759.057 112.05L759.769 113.976L761.527 115.051L762.392 114.87L763.159 112.566L762.406 109.83L763.913 108.978L764.304 106.828L763.676 105.46L766.452 103.869L764.694 102.026L765.601 99.6105L767.401 96.7905L767.862 99.7501L768.936 98.4099L770.15 99.2615L770.806 98.8148V97.2651L773.652 96.1203L773.917 93.4817L776.261 93.2863L778.452 90.2847V90.0334L777.671 89.6006L777.573 86.3617L778.187 85.2169L776.945 83.765L778.033 82.0757L778.717 82.1874L780.029 81.7127L780.475 84.2536L781.926 84.0303L784.061 84.5468V84.3234L782.526 82.6481L784.256 82.7738L784.382 80.0654L785.289 81.28L787.159 79.144L788.777 78.8927L789.196 80.2608L790.089 81.1124L790.34 79.7722L792.14 78.8368L791.526 77.9573L791.651 75.7515L793.061 76.3937H793.451L794.721 75.3466L795.112 73.085L797.023 73.3502L797.065 73.1268L797.442 70.0834L798.265 72.4009L799.088 71.8564L801 68.422L800.93 66.7188L799.772 65.0714L797.275 62.4049H796.061L795.237 64.6805L792.084 61.3997L792.405 60.5342V59.3615L791.093 55.6618L790.745 55.5781L790.186 55.8992H785.498L785.205 52.4229L778.159 29.7645L771.978 26.6233L769.689 26.5396L763.759 32.4031Z" fill="#A2C5D3"/>
<path d="M762.923 143.713L763.801 145.611L763.941 145.276L765.029 145.472L765.741 144.815L765.434 143.88L765.811 142.512H766.983L767.666 141.688L767.778 140.264L769.243 140.432L769.55 141.758L770.052 142.372L769.55 144.327L770.611 143.21L772.411 142.219L772.494 141.186L774.224 140.097L775.006 140.362L778.243 138.24L779.01 139.329L779.22 138.77L778.215 136.02L777.113 133.745L775.229 132.013L775.076 131.985L776.08 134.401L776.289 133.772L778.034 136.816L776.652 137.207L775.341 138.184L774.545 139.078L772.717 139.161H770.904L769.815 138.407L769.271 136.579L768.713 135.811L766.983 135.713L766.787 133.228L764.806 131.162H763.285L762.629 130.813L762.462 131.287L761.178 131.567L760.341 130.171L761.011 129.57L760.076 128.328L761.318 128.035L761.081 127.546L761.904 126.625L761.722 125.871L764.402 123.721V123.065L764.039 122.478L763.243 123.414L761.974 122.911L760.495 120.035L759.685 119.854L758.43 120.663L757.969 121.682L756.365 122.199L756.127 123.539L755.123 125.061L738.812 128.439L728.221 130.743L727.803 143.489L728.193 144.048L737.402 141.94L737.821 142.526L738.072 142.442V141.8L738.226 141.758L751.802 138.659L751.886 138.896L757.606 137.137L758.248 139.524H758.96L759.518 141.577L761.722 142.693L762.923 143.713Z" fill="#A2C5D3"/>
<path d="M758.416 112.566L755.57 110.793L755.025 107.121L744.979 76.0167L744.826 76.5473L743.221 76.6729L742.454 75.8213L741.212 76.7287L740.793 81.8105L741.868 83.8767L740.919 86.9062L742.747 89.3633L742.37 90.9688L742.468 92.1694L741.365 94.2635L740.152 94.6126L739.635 95.7155L737.793 96.595L737.305 97.6281L738.519 100.574L738.072 102.794L738.533 104.162L737.654 105.865L738.003 107.554L736.845 109.244L737.026 111.17L736.412 112.133L736.998 115.889L737.64 117.271L737.207 119.547L737.989 121.11L737.793 123.47L737.361 124.614L737.291 125.634L738.882 127.616L754.635 124.349L755.388 123.232L755.667 121.585L757.397 121.04L757.816 120.133L759.546 119.002L760.439 119.212L761.025 115.666L759.114 114.507L758.416 112.566Z" fill="#A2C5D3"/>
<path d="M752.444 159.335L751.649 158.79L750.588 159.419L750.477 160.452L749.43 160.214L749.249 160.522L747.909 162.993H745.37L746.5 160.745L747.24 160.256L747.491 158.818L748.468 157.688L748.258 157.855L747.784 158.4L746.165 160.536L745.803 161.373L744.407 162.267L737.961 163.858L738.114 164.514L737.04 165.352L735.045 165.645L734.528 165.338L734.375 166.204L733.566 165.91L733.635 166.636L732.198 166.525L731.445 166.846L731.236 167.921H730.51L730.691 168.8H730.077L730.231 169.582L728.431 169.987L727.259 171.788L727.105 173.338L727.426 173.603L728.459 173.366L729.254 173.575L730.008 172.5H731.808L733.845 171.732L734.11 171.62L734.445 170.322L736.817 169.317L737.584 168.354L738.728 168.437L742.803 166.148V166.804L743.961 165.296L745.356 165.212L749.179 162.56L752.012 159.824L754.607 157.827L754.956 157.408L754.439 157.38L753.686 158.288L753.198 158.497L752.444 159.335Z" fill="#A2C5D3"/>
<path d="M757.649 140.306L757.063 138.128L752.109 139.65L754.844 150.218L754.495 151.196L754.705 152.117L758.96 149.367L759.044 147.105L758.235 146.296L758.681 145.611L758.625 144.788L757.398 143.824L758.695 143.392L757.593 141.437L758.779 141.898L758.346 140.306H757.649Z" fill="#A2C5D3"/>
<path d="M761.75 143.755L763.09 146.743L763.355 146.505L762.28 144.202L761.75 143.755Z" fill="#A2C5D3"/>
<path d="M760.48 142.945L760.69 143.908L761.359 145.053L761.22 143.322L760.48 142.945Z" fill="#A2C5D3"/>
<path d="M760.914 145.556L761.095 145.821L760.746 147.203L760.872 147.454L761.5 146.728L761.43 145.835L760.914 145.556Z" fill="#A2C5D3"/>
<path d="M736.481 125.885L736.578 124.447L737.025 123.302L737.178 121.264L736.383 119.658L736.816 117.369L736.243 116.112L735.588 111.952L736.216 110.974L736.034 109.034L737.164 107.387L736.816 105.739L737.681 104.092L737.262 102.835L737.695 100.657L736.453 97.614L737.192 96.0085L739.034 95.1289L739.578 93.9562L740.82 93.5933L741.657 92.0017L741.573 90.9128L741.894 89.5306L740.039 87.0596L741.015 83.9463L740.192 82.3408L716.988 88.2183L717.546 89.419L717.072 90.9547L718.286 91.7365L717.881 93.2442L718.286 95.8549L720.281 97.9351L719.904 99.9734L720.449 101.774L720.058 102.724L719.807 105.907L722.569 111.868L721.858 113.46L722.277 114.479L722.89 113.39L725.039 115.079L727.718 127.797L727.314 129.403L727.955 129.989L729.406 129.682L738.015 127.797L736.481 125.885Z" fill="#A2C5D3"/>
<path d="M749.108 159.056L751.606 157.101L752.108 156.319L751.564 156.529L748.885 158.986L749.108 159.056Z" fill="#A2C5D3"/>
<path d="M756.17 155.537L757.077 155.468L759.044 154.337L759.226 154.127L758.905 153.611L756.17 155.537Z" fill="#A2C5D3"/>
<path d="M773.094 145.877L771.754 145.639L771.294 144.941L770.945 145.025L770.052 145.765L769.536 147.622L769.033 148.013L769.256 148.124L770.108 147.133L772.689 146.477L773.442 146.31L773.275 145.695L773.094 145.877Z" fill="#A2C5D3"/>
<path d="M776.918 146.379V146.435L777.351 146.645H780.127L780.657 146.296L780.713 145.528L780.099 144.941L778.648 146.379H776.918Z" fill="#A2C5D3"/>
<path d="M338.458 84.1138C344.045 84.1138 348.574 79.5822 348.574 73.9922C348.574 68.4022 344.045 63.8706 338.458 63.8706C332.871 63.8706 328.342 68.4022 328.342 73.9922C328.342 79.5822 332.871 84.1138 338.458 84.1138Z" fill="#021D49"/>
<path d="M72.5144 327.731C78.1012 327.731 82.6303 323.199 82.6303 317.609C82.6303 312.019 78.1012 307.487 72.5144 307.487C66.9275 307.487 62.3984 312.019 62.3984 317.609C62.3984 323.199 66.9275 327.731 72.5144 327.731Z" fill="#021D49"/>
<path d="M471.012 333.315C476.599 333.315 481.128 328.783 481.128 323.193C481.128 317.603 476.599 313.072 471.012 313.072C465.426 313.072 460.896 317.603 460.896 323.193C460.896 328.783 465.426 333.315 471.012 333.315Z" fill="#021D49"/>
<path d="M528.917 189.518C534.504 189.518 539.033 184.987 539.033 179.397C539.033 173.806 534.504 169.275 528.917 169.275C523.33 169.275 518.801 173.806 518.801 179.397C518.801 184.987 523.33 189.518 528.917 189.518Z" fill="#021D49"/>
<path d="M526.823 189.518C532.41 189.518 536.939 185.143 536.939 179.746C536.939 174.348 532.41 169.973 526.823 169.973C521.236 169.973 516.707 174.348 516.707 179.746C516.707 185.143 521.236 189.518 526.823 189.518Z" fill="#021D49"/>
<path d="M507.638 253.04C513.032 253.04 517.405 248.508 517.405 242.918C517.405 237.328 513.032 232.797 507.638 232.797C502.244 232.797 497.871 237.328 497.871 242.918C497.871 248.508 502.244 253.04 507.638 253.04Z" fill="#021D49"/>
<path d="M527.52 194.405C533.107 194.405 537.636 190.029 537.636 184.632C537.636 179.235 533.107 174.859 527.52 174.859C521.933 174.859 517.404 179.235 517.404 184.632C517.404 190.029 521.933 194.405 527.52 194.405Z" fill="#021D49"/>
<path d="M519.149 203.479C524.736 203.479 529.265 198.947 529.265 193.357C529.265 187.767 524.736 183.236 519.149 183.236C513.562 183.236 509.033 187.767 509.033 193.357C509.033 198.947 513.562 203.479 519.149 203.479Z" fill="#021D49"/>
<path d="M606.007 213.252C611.402 213.252 615.774 208.876 615.774 203.479C615.774 198.082 611.402 193.707 606.007 193.707C600.613 193.707 596.24 198.082 596.24 203.479C596.24 208.876 600.613 213.252 606.007 213.252Z" fill="#021D49"/>
<path d="M585.078 206.272C590.472 206.272 594.845 201.74 594.845 196.15C594.845 190.56 590.472 186.028 585.078 186.028C579.683 186.028 575.311 190.56 575.311 196.15C575.311 201.74 579.683 206.272 585.078 206.272Z" fill="#021D49"/>
<path d="M747.979 167.181C753.566 167.181 758.095 162.649 758.095 157.059C758.095 151.469 753.566 146.938 747.979 146.938C742.392 146.938 737.863 151.469 737.863 157.059C737.863 162.649 742.392 167.181 747.979 167.181Z" fill="#021D49"/>
<path d="M746.583 164.389C752.17 164.389 756.699 159.857 756.699 154.267C756.699 148.677 752.17 144.146 746.583 144.146C740.996 144.146 736.467 148.677 736.467 154.267C736.467 159.857 740.996 164.389 746.583 164.389Z" fill="#021D49"/>
<path d="M739.606 147.636C745.193 147.636 749.722 143.261 749.722 137.863C749.722 132.466 745.193 128.091 739.606 128.091C734.019 128.091 729.49 132.466 729.49 137.863C729.49 143.261 734.019 147.636 739.606 147.636Z" fill="#021D49"/>
<path d="M710.305 198.593C715.892 198.593 720.421 194.061 720.421 188.471C720.421 182.881 715.892 178.35 710.305 178.35C704.719 178.35 700.189 182.881 700.189 188.471C700.189 194.061 704.719 198.593 710.305 198.593Z" fill="#021D49"/>
<path d="M713.794 200.687C719.381 200.687 723.91 196.311 723.91 190.914C723.91 185.517 719.381 181.142 713.794 181.142C708.207 181.142 703.678 185.517 703.678 190.914C703.678 196.311 708.207 200.687 713.794 200.687Z" fill="#021D49"/>
<path d="M683.796 190.915C689.382 190.915 693.912 186.383 693.912 180.793C693.912 175.203 689.382 170.671 683.796 170.671C678.209 170.671 673.68 175.203 673.68 180.793C673.68 186.383 678.209 190.915 683.796 190.915Z" fill="#021D49"/>
<path d="M76.8386 207.668C82.4255 207.668 86.9545 203.136 86.9545 197.546C86.9545 191.956 82.4255 187.424 76.8386 187.424C71.2517 187.424 66.7227 191.956 66.7227 197.546C66.7227 203.136 71.2517 207.668 76.8386 207.668Z" fill="#0075A9"/>
<path d="M658.288 428.193C663.875 428.193 668.404 423.817 668.404 418.42C668.404 413.023 663.875 408.647 658.288 408.647C652.701 408.647 648.172 413.023 648.172 418.42C648.172 423.817 652.701 428.193 658.288 428.193Z" fill="#0075A9"/>
<path d="M159.86 338.899C165.447 338.899 169.976 334.367 169.976 328.777C169.976 323.187 165.447 318.656 159.86 318.656C154.273 318.656 149.744 323.187 149.744 328.777C149.744 334.367 154.273 338.899 159.86 338.899Z" fill="#0075A9"/>
<path d="M519.846 198.593C525.433 198.593 529.962 194.061 529.962 188.471C529.962 182.881 525.433 178.35 519.846 178.35C514.26 178.35 509.73 182.881 509.73 188.471C509.73 194.061 514.26 198.593 519.846 198.593Z" fill="#0075A9"/>
<path d="M512.521 231.401C517.915 231.401 522.288 226.869 522.288 221.279C522.288 215.689 517.915 211.158 512.521 211.158C507.127 211.158 502.754 215.689 502.754 221.279C502.754 226.869 507.127 231.401 512.521 231.401Z" fill="#0075A9"/>
<path d="M490.197 262.115C495.591 262.115 499.964 257.583 499.964 251.993C499.964 246.403 495.591 241.872 490.197 241.872C484.803 241.872 480.43 246.403 480.43 251.993C480.43 257.583 484.803 262.115 490.197 262.115Z" fill="#0075A9"/>
<path d="M504.499 283.754C510.086 283.754 514.615 279.222 514.615 273.632C514.615 268.042 510.086 263.511 504.499 263.511C498.912 263.511 494.383 268.042 494.383 273.632C494.383 279.222 498.912 283.754 504.499 283.754Z" fill="#0075A9"/>
<path d="M640.54 182.538C646.127 182.538 650.656 178.006 650.656 172.416C650.656 166.826 646.127 162.294 640.54 162.294C634.953 162.294 630.424 166.826 630.424 172.416C630.424 178.006 634.953 182.538 640.54 182.538Z" fill="#0075A9"/>
<path d="M655.19 206.271C660.777 206.271 665.306 201.896 665.306 196.499C665.306 191.101 660.777 186.726 655.19 186.726C649.603 186.726 645.074 191.101 645.074 196.499C645.074 201.896 649.603 206.271 655.19 206.271Z" fill="#0075A9"/>
<path d="M699.143 188.122C704.73 188.122 709.259 183.591 709.259 178.001C709.259 172.411 704.73 167.879 699.143 167.879C693.556 167.879 689.027 172.411 689.027 178.001C689.027 183.591 693.556 188.122 699.143 188.122Z" fill="#0075A9"/>
<path d="M697.749 199.291C703.336 199.291 707.865 194.759 707.865 189.169C707.865 183.579 703.336 179.048 697.749 179.048C692.162 179.048 687.633 183.579 687.633 189.169C687.633 194.759 692.162 199.291 697.749 199.291Z" fill="#0075A9"/>
<path d="M756.35 145.542C761.937 145.542 766.466 141.166 766.466 135.769C766.466 130.372 761.937 125.997 756.35 125.997C750.763 125.997 746.234 130.372 746.234 135.769C746.234 141.166 750.763 145.542 756.35 145.542Z" fill="#0075A9"/>
<path d="M758.444 140.656C764.031 140.656 768.56 136.28 768.56 130.883C768.56 125.486 764.031 121.11 758.444 121.11C752.857 121.11 748.328 125.486 748.328 130.883C748.328 136.28 752.857 140.656 758.444 140.656Z" fill="#0075A9"/>
<path d="M751.816 142.749C757.21 142.749 761.583 138.374 761.583 132.977C761.583 127.579 757.21 123.204 751.816 123.204C746.422 123.204 742.049 127.579 742.049 132.977C742.049 138.374 746.422 142.749 751.816 142.749Z" fill="#0075A9"/>
<path d="M753.559 146.24C759.146 146.24 763.675 141.708 763.675 136.118C763.675 130.528 759.146 125.997 753.559 125.997C747.972 125.997 743.443 130.528 743.443 136.118C743.443 141.708 747.972 146.24 753.559 146.24Z" fill="#021D49"/>
<path d="M747.28 151.824C752.867 151.824 757.396 147.293 757.396 141.703C757.396 136.113 752.867 131.581 747.28 131.581C741.693 131.581 737.164 136.113 737.164 141.703C737.164 147.293 741.693 151.824 747.28 151.824Z" fill="#0075A9"/>
</g>
<path d="M62.1159 484.545C67.7028 484.545 72.2319 480.17 72.2319 474.773C72.2319 469.375 67.7028 465 62.1159 465C56.5291 465 52 469.375 52 474.773C52 480.17 56.5291 484.545 62.1159 484.545Z" fill="#0075A9"/>
<path d="M88.184 449V437.8H91.8C92.6747 437.8 93.3893 437.944 93.944 438.232C94.4987 438.52 94.9093 438.915 95.176 439.416C95.4427 439.917 95.576 440.472 95.576 441.08C95.576 441.784 95.384 442.419 95 442.984C94.6267 443.549 94.04 443.949 93.24 444.184L95.688 449H94.104L91.832 444.376H91.736H89.528V449H88.184ZM89.528 443.32H91.704C92.568 443.32 93.1973 443.112 93.592 442.696C93.9867 442.28 94.184 441.747 94.184 441.096C94.184 440.435 93.9867 439.912 93.592 439.528C93.208 439.133 92.5733 438.936 91.688 438.936H89.528V443.32ZM100.672 449.192C99.9147 449.192 99.2427 449.021 98.656 448.68C98.0693 448.328 97.6053 447.843 97.264 447.224C96.9333 446.605 96.768 445.875 96.768 445.032C96.768 444.2 96.9333 443.475 97.264 442.856C97.5947 442.227 98.0533 441.741 98.64 441.4C99.2373 441.048 99.9253 440.872 100.704 440.872C101.472 440.872 102.133 441.048 102.688 441.4C103.253 441.741 103.685 442.195 103.984 442.76C104.283 443.325 104.432 443.933 104.432 444.584C104.432 444.701 104.427 444.819 104.416 444.936C104.416 445.053 104.416 445.187 104.416 445.336H98.096C98.128 445.944 98.2667 446.451 98.512 446.856C98.768 447.251 99.0827 447.549 99.456 447.752C99.84 447.955 100.245 448.056 100.672 448.056C101.227 448.056 101.691 447.928 102.064 447.672C102.437 447.416 102.709 447.069 102.88 446.632H104.208C103.995 447.368 103.584 447.981 102.976 448.472C102.379 448.952 101.611 449.192 100.672 449.192ZM100.672 442.008C100.032 442.008 99.4613 442.205 98.96 442.6C98.4693 442.984 98.1867 443.549 98.112 444.296H103.104C103.072 443.581 102.827 443.021 102.368 442.616C101.909 442.211 101.344 442.008 100.672 442.008ZM109.084 449C108.358 449 107.788 448.824 107.372 448.472C106.956 448.12 106.748 447.485 106.748 446.568V442.2H105.372V441.064H106.748L106.924 439.16H108.092V441.064H110.428V442.2H108.092V446.568C108.092 447.069 108.193 447.411 108.396 447.592C108.598 447.763 108.956 447.848 109.468 447.848H110.3V449H109.084ZM114.775 449.192C114.114 449.192 113.565 449.08 113.127 448.856C112.69 448.632 112.365 448.333 112.151 447.96C111.938 447.587 111.831 447.181 111.831 446.744C111.831 445.933 112.141 445.309 112.759 444.872C113.378 444.435 114.221 444.216 115.287 444.216H117.431V444.12C117.431 443.427 117.25 442.904 116.887 442.552C116.525 442.189 116.039 442.008 115.431 442.008C114.909 442.008 114.455 442.141 114.071 442.408C113.698 442.664 113.463 443.043 113.367 443.544H111.991C112.045 442.968 112.237 442.483 112.567 442.088C112.909 441.693 113.33 441.395 113.831 441.192C114.333 440.979 114.866 440.872 115.431 440.872C116.541 440.872 117.373 441.171 117.927 441.768C118.493 442.355 118.775 443.139 118.775 444.12V449H117.575L117.495 447.576C117.271 448.024 116.941 448.408 116.503 448.728C116.077 449.037 115.501 449.192 114.775 449.192ZM114.983 448.056C115.495 448.056 115.933 447.923 116.295 447.656C116.669 447.389 116.951 447.043 117.143 446.616C117.335 446.189 117.431 445.741 117.431 445.272V445.256H115.399C114.61 445.256 114.05 445.395 113.719 445.672C113.399 445.939 113.239 446.275 113.239 446.68C113.239 447.096 113.389 447.432 113.687 447.688C113.997 447.933 114.429 448.056 114.983 448.056ZM121.608 439.304C121.341 439.304 121.117 439.219 120.936 439.048C120.765 438.867 120.68 438.643 120.68 438.376C120.68 438.12 120.765 437.907 120.936 437.736C121.117 437.565 121.341 437.48 121.608 437.48C121.864 437.48 122.082 437.565 122.264 437.736C122.445 437.907 122.536 438.12 122.536 438.376C122.536 438.643 122.445 438.867 122.264 439.048C122.082 439.219 121.864 439.304 121.608 439.304ZM120.936 449V441.064H122.28V449H120.936ZM124.62 449V437.48H125.964V449H124.62Z" fill="#021D49"/>
<path d="M93.096 480.192C91.9973 480.192 91.048 479.952 90.248 479.472C89.4587 478.981 88.8453 478.304 88.408 477.44C87.9707 476.565 87.752 475.552 87.752 474.4C87.752 473.259 87.9707 472.256 88.408 471.392C88.8453 470.517 89.4587 469.835 90.248 469.344C91.048 468.853 91.9973 468.608 93.096 468.608C94.376 468.608 95.416 468.917 96.216 469.536C97.0267 470.144 97.544 470.997 97.768 472.096H96.28C96.1093 471.403 95.7573 470.848 95.224 470.432C94.7013 470.005 93.992 469.792 93.096 469.792C92.296 469.792 91.5973 469.979 91 470.352C90.4027 470.715 89.9387 471.243 89.608 471.936C89.288 472.619 89.128 473.44 89.128 474.4C89.128 475.36 89.288 476.187 89.608 476.88C89.9387 477.563 90.4027 478.091 91 478.464C91.5973 478.827 92.296 479.008 93.096 479.008C93.992 479.008 94.7013 478.805 95.224 478.4C95.7573 477.984 96.1093 477.435 96.28 476.752H97.768C97.544 477.829 97.0267 478.672 96.216 479.28C95.416 479.888 94.376 480.192 93.096 480.192ZM102.516 480.192C101.577 480.192 100.83 479.909 100.276 479.344C99.721 478.768 99.4436 477.888 99.4436 476.704V472.064H100.788V476.56C100.788 478.213 101.465 479.04 102.82 479.04C103.513 479.04 104.084 478.795 104.532 478.304C104.99 477.803 105.22 477.093 105.22 476.176V472.064H106.564V480H105.348L105.252 478.576C105.006 479.077 104.638 479.472 104.148 479.76C103.668 480.048 103.124 480.192 102.516 480.192ZM108.776 480V468.48H110.12V480H108.776ZM115.459 480C114.733 480 114.163 479.824 113.747 479.472C113.331 479.12 113.123 478.485 113.123 477.568V473.2H111.747V472.064H113.123L113.299 470.16H114.467V472.064H116.803V473.2H114.467V477.568C114.467 478.069 114.568 478.411 114.771 478.592C114.973 478.763 115.331 478.848 115.843 478.848H116.675V480H115.459ZM119.326 470.304C119.06 470.304 118.836 470.219 118.654 470.048C118.484 469.867 118.398 469.643 118.398 469.376C118.398 469.12 118.484 468.907 118.654 468.736C118.836 468.565 119.06 468.48 119.326 468.48C119.582 468.48 119.801 468.565 119.982 468.736C120.164 468.907 120.254 469.12 120.254 469.376C120.254 469.643 120.164 469.867 119.982 470.048C119.801 470.219 119.582 470.304 119.326 470.304ZM118.654 480V472.064H119.998V480H118.654ZM124.626 480L121.618 472.064H123.026L125.41 478.704L127.81 472.064H129.186L126.178 480H124.626ZM132.916 480.192C132.255 480.192 131.705 480.08 131.268 479.856C130.831 479.632 130.505 479.333 130.292 478.96C130.079 478.587 129.972 478.181 129.972 477.744C129.972 476.933 130.281 476.309 130.9 475.872C131.519 475.435 132.361 475.216 133.428 475.216H135.572V475.12C135.572 474.427 135.391 473.904 135.028 473.552C134.665 473.189 134.18 473.008 133.572 473.008C133.049 473.008 132.596 473.141 132.212 473.408C131.839 473.664 131.604 474.043 131.508 474.544H130.132C130.185 473.968 130.377 473.483 130.708 473.088C131.049 472.693 131.471 472.395 131.972 472.192C132.473 471.979 133.007 471.872 133.572 471.872C134.681 471.872 135.513 472.171 136.068 472.768C136.633 473.355 136.916 474.139 136.916 475.12V480H135.716L135.636 478.576C135.412 479.024 135.081 479.408 134.644 479.728C134.217 480.037 133.641 480.192 132.916 480.192ZM133.124 479.056C133.636 479.056 134.073 478.923 134.436 478.656C134.809 478.389 135.092 478.043 135.284 477.616C135.476 477.189 135.572 476.741 135.572 476.272V476.256H133.54C132.751 476.256 132.191 476.395 131.86 476.672C131.54 476.939 131.38 477.275 131.38 477.68C131.38 478.096 131.529 478.432 131.828 478.688C132.137 478.933 132.569 479.056 133.124 479.056ZM141.849 480C141.124 480 140.553 479.824 140.137 479.472C139.721 479.12 139.513 478.485 139.513 477.568V473.2H138.137V472.064H139.513L139.689 470.16H140.857V472.064H143.193V473.2H140.857V477.568C140.857 478.069 140.959 478.411 141.161 478.592C141.364 478.763 141.721 478.848 142.233 478.848H143.065V480H141.849ZM145.717 470.304C145.45 470.304 145.226 470.219 145.045 470.048C144.874 469.867 144.789 469.643 144.789 469.376C144.789 469.12 144.874 468.907 145.045 468.736C145.226 468.565 145.45 468.48 145.717 468.48C145.973 468.48 146.192 468.565 146.373 468.736C146.554 468.907 146.645 469.12 146.645 469.376C146.645 469.643 146.554 469.867 146.373 470.048C146.192 470.219 145.973 470.304 145.717 470.304ZM145.045 480V472.064H146.389V480H145.045ZM152.345 480.192C151.598 480.192 150.926 480.021 150.329 479.68C149.732 479.339 149.257 478.859 148.905 478.24C148.564 477.611 148.393 476.875 148.393 476.032C148.393 475.189 148.569 474.459 148.921 473.84C149.273 473.211 149.748 472.725 150.345 472.384C150.953 472.043 151.63 471.872 152.377 471.872C153.124 471.872 153.796 472.043 154.393 472.384C154.99 472.725 155.46 473.211 155.801 473.84C156.153 474.459 156.329 475.189 156.329 476.032C156.329 476.875 156.153 477.611 155.801 478.24C155.449 478.859 154.969 479.339 154.361 479.68C153.764 480.021 153.092 480.192 152.345 480.192ZM152.345 479.04C152.804 479.04 153.23 478.928 153.625 478.704C154.02 478.48 154.34 478.144 154.585 477.696C154.83 477.248 154.953 476.693 154.953 476.032C154.953 475.371 154.83 474.816 154.585 474.368C154.35 473.92 154.036 473.584 153.641 473.36C153.246 473.136 152.825 473.024 152.377 473.024C151.918 473.024 151.492 473.136 151.097 473.36C150.702 473.584 150.382 473.92 150.137 474.368C149.892 474.816 149.769 475.371 149.769 476.032C149.769 476.693 149.892 477.248 150.137 477.696C150.382 478.144 150.697 478.48 151.081 478.704C151.476 478.928 151.897 479.04 152.345 479.04ZM158.198 480V472.064H159.414L159.494 473.488C159.75 472.987 160.118 472.592 160.598 472.304C161.078 472.016 161.622 471.872 162.23 471.872C163.168 471.872 163.915 472.16 164.47 472.736C165.035 473.301 165.318 474.176 165.318 475.36V480H163.974V475.504C163.974 473.851 163.291 473.024 161.926 473.024C161.243 473.024 160.672 473.275 160.214 473.776C159.766 474.267 159.542 474.971 159.542 475.888V480H158.198Z" fill="#021D49"/>
<path d="M62.1159 455.243C67.7028 455.243 72.2319 450.712 72.2319 445.122C72.2319 439.532 67.7028 435 62.1159 435C56.5291 435 52 439.532 52 445.122C52 450.712 56.5291 455.243 62.1159 455.243Z" fill="#021D49"/>
<defs>
<clipPath id="clip0_524243_16">
<rect width="801" height="504" fill="white"/>
</clipPath>
</defs>
</svg>
