<svg width="17" height="17" viewBox="0 0 17 17" fill="none" xmlns="http://www.w3.org/2000/svg">
<path d="M14.875 0H2.125C1.56153 0.000367922 1.02124 0.224369 0.622804 0.622804C0.224369 1.02124 0.000367922 1.56153 0 2.125L0 14.875C0.000367922 15.4385 0.224369 15.9788 0.622804 16.3772C1.02124 16.7756 1.56153 16.9996 2.125 17H14.875C15.4385 16.9996 15.9788 16.7756 16.3772 16.3772C16.7756 15.9788 16.9996 15.4385 17 14.875V2.125C16.9996 1.56153 16.7756 1.02124 16.3772 0.622804C15.9788 0.224369 15.4385 0.000367922 14.875 0V0ZM4.875 14.4972H2.02778V5.93194H4.875V14.4972ZM3.45139 4.7625H3.43194C2.47639 4.7625 1.85972 4.10417 1.85972 3.28194C1.85972 2.45972 2.5 1.80556 3.47222 1.80556C4.44444 1.80556 5.04583 2.44583 5.06389 3.28472C5.08194 4.12361 4.44444 4.7625 3.45139 4.7625ZM15.1389 14.4972H12.2931V9.91389C12.2931 8.7625 11.8764 7.96944 10.8514 7.96944C10.0653 7.96944 9.60139 8.5 9.39028 9.01111C9.31765 9.23509 9.28612 9.47036 9.29722 9.70555V14.4889H6.45C6.45 14.4889 6.4875 6.72778 6.45 5.92361H9.29722V7.13611C9.67639 6.55278 10.3528 5.72222 11.8625 5.72222C13.7361 5.73056 15.1389 6.95417 15.1389 9.58333V14.4972Z" fill="#0076A7"/>
</svg>
