<svg width="260" height="73" viewBox="0 0 260 73" fill="none" xmlns="http://www.w3.org/2000/svg">
<path d="M86.8249 71.3076L69.9269 44.7111H69.7777V71.3076H65.5176V37.4458H70.7698L87.2723 63.7964H87.4215V37.4458H91.7335V71.3076H86.8314H86.8249Z" fill="white"/>
<path d="M107.711 72.0001C104.936 72.0001 101.966 71.3597 99.8325 69.1794C97.4528 66.708 96.5645 63.1498 96.5645 58.7957C96.5645 54.4417 97.6019 50.7346 100.28 48.2632C102.264 46.5359 104.741 45.6431 108.158 45.6431C110.882 45.6431 113.657 46.2836 115.738 48.1662C118.715 50.7346 119.058 54.5452 119.058 59.7856H101.071C101.22 65.5694 103.749 68.3901 108.703 68.3901C111.725 68.3901 114.798 67.6979 118.118 66.9086V70.4216C114.896 71.2109 111.18 72.0066 107.711 72.0066V72.0001ZM107.86 48.8132C103.003 48.8132 101.369 51.8797 101.071 56.6219H114.597C114.448 51.4333 112.665 48.8132 107.86 48.8132Z" fill="white"/>
<path d="M146.999 71.3079L140.411 51.9315H140.314L133.92 71.3079H128.765L121.088 46.3418H125.795L131.495 66.2164H131.592L137.934 46.3418H143.037L149.476 66.2164H149.625L155.176 46.3418H159.682L152.102 71.3079H146.999Z" fill="white"/>
<path d="M165.227 71.3076V37.4458H169.883V67.2059H186.975V71.3076H165.221H165.227Z" fill="white"/>
<path d="M206.103 71.3075L206.006 70.0201C202.738 71.0552 200.008 71.9998 196.889 71.9998C194.755 71.9998 192.629 71.5081 191.04 70.0201C189.451 68.5838 188.66 66.7594 188.66 64.1845C188.66 61.6096 189.698 58.9959 192.227 57.6567C194.107 56.6669 196.091 56.5181 198.717 56.5181C200.552 56.5181 203.178 56.6669 205.454 56.861V55.7741C205.454 50.8313 203.47 49.2463 197.725 49.2463C195.696 49.2463 193.517 49.3951 191.533 49.6409V46.0826C193.809 45.8368 196.188 45.6362 198.471 45.6362C201.791 45.6362 205.163 45.9791 207.393 48.1076C209.572 50.1326 209.87 52.8563 209.87 56.3628V71.2946H206.103V71.3075ZM205.461 60.0375C203.431 59.837 200.851 59.6946 199.067 59.6946C194.561 59.6946 192.972 61.325 192.972 64.1457C192.972 66.7659 194.853 68.6421 198.023 68.6421C200.351 68.6421 202.88 67.8981 205.454 67.057V60.0375H205.461Z" fill="white"/>
<path d="M230.374 71.3077L221.653 60.1865L219.818 62.2632V71.3077H215.408V35.8091H219.818V56.9193L229.33 46.3416H234.88L224.869 57.1652L235.866 71.3012H230.367L230.374 71.3077Z" fill="white"/>
<path d="M248.109 72.0001C245.334 72.0001 242.364 71.3597 240.231 69.1794C237.851 66.708 236.963 63.1498 236.963 58.7957C236.963 54.4417 238 50.7346 240.678 48.2632C242.663 46.5359 245.14 45.6431 248.557 45.6431C251.28 45.6431 254.055 46.2836 256.137 48.1662C259.113 50.7346 259.457 54.5452 259.457 59.7856H241.469C241.619 65.5694 244.147 68.3901 249.101 68.3901C252.123 68.3901 255.197 67.6979 258.517 66.9086V70.4216C255.294 71.2109 251.578 72.0066 248.109 72.0066V72.0001ZM248.258 48.8132C243.402 48.8132 241.768 51.8797 241.469 56.6219H254.996C254.847 51.4333 253.063 48.8132 248.258 48.8132Z" fill="white"/>
<path d="M0.15625 19.9261C0.15625 19.9261 13.9807 30.7626 51.7841 19.9261C89.5809 9.08951 94.5544 27.5084 94.5544 27.5084C94.5544 27.5084 86.3582 18.7033 67.8391 24.1248C49.2228 29.5722 14.9404 45.0604 0.15625 19.9261Z" fill="white"/>
<path d="M11.6016 14.369C11.6016 14.369 20.7574 25.8266 47.8033 16.5104C69.1949 9.14154 83.1102 15.6435 83.1102 15.6435C83.1102 15.6435 75.4198 8.087 60.6357 7.4918C42.0647 6.74132 38.0963 17.1962 11.608 14.369H11.6016Z" fill="white"/>
<path d="M66.8021 5.65407C66.8021 5.65407 54.3393 -4.78137 39.2375 2.71041C28.5254 8.02841 21.4316 6.95445 21.4316 6.95445C21.4316 6.95445 24.3496 8.71418 28.9275 9.02472C44.1136 10.0663 49.3789 -0.938439 66.7956 5.65407H66.8021Z" fill="white"/>
</svg>
