<svg width="249" height="70" viewBox="0 0 249 70" fill="none" xmlns="http://www.w3.org/2000/svg">
<g clip-path="url(#clip0_524069_284)">
<path d="M83.2266 69.327L66.9998 43.4693H66.8566V69.327H62.7656V36.4058H67.8093L83.6562 62.0244H83.7995V36.4058H87.9402V69.327H83.2328H83.2266Z" fill="#021D49"/>
<path d="M103.284 70C100.619 70 97.7669 69.3773 95.7183 67.2576C93.4331 64.8549 92.5801 61.3955 92.5801 57.1624C92.5801 52.9293 93.5764 49.3252 96.148 46.9225C98.0534 45.2431 100.432 44.3751 103.713 44.3751C106.329 44.3751 108.994 44.9978 110.992 46.8281C113.851 49.3252 114.181 53.0299 114.181 58.1247H96.9077C97.0509 63.7479 99.4793 66.4903 104.236 66.4903C107.138 66.4903 110.09 65.8172 113.278 65.0499V68.4653C110.183 69.2326 106.615 70.0063 103.284 70.0063V70ZM103.427 47.4571C98.7632 47.4571 97.1941 50.4385 96.9077 55.049H109.897C109.753 50.0045 108.041 47.4571 103.427 47.4571Z" fill="#021D49"/>
<path d="M141.011 69.327L134.685 50.4888H134.591L128.452 69.327H123.501L116.129 45.0544H120.649L126.123 64.3769H126.216L132.306 45.0544H137.206L143.389 64.3769H143.533L148.863 45.0544H153.19L145.911 69.327H141.011Z" fill="#021D49"/>
<path d="M158.514 69.327V36.4058H162.985V65.3392H179.398V69.327H158.508H158.514Z" fill="#021D49"/>
<path d="M197.767 69.327L197.674 68.0753C194.536 69.0817 191.914 70 188.919 70C186.871 70 184.828 69.522 183.303 68.0753C181.777 66.679 181.018 64.9052 181.018 62.4018C181.018 59.8985 182.014 57.3574 184.442 56.0554C186.248 55.093 188.153 54.9483 190.675 54.9483C192.437 54.9483 194.959 55.093 197.145 55.2817V54.225C197.145 49.4195 195.239 47.8785 189.723 47.8785C187.774 47.8785 185.681 48.0232 183.776 48.2622V44.8028C185.962 44.5638 188.247 44.3688 190.439 44.3688C193.627 44.3688 196.865 44.7021 199.007 46.7715C201.099 48.7402 201.385 51.3883 201.385 54.7974V69.3144H197.767V69.327ZM197.151 58.37C195.202 58.175 192.724 58.0367 191.011 58.0367C186.684 58.0367 185.158 59.6217 185.158 62.3641C185.158 64.9115 186.964 66.7356 190.009 66.7356C192.244 66.7356 194.673 66.0122 197.145 65.1945V58.37H197.151Z" fill="#021D49"/>
<path d="M221.074 69.327L212.699 58.5147L210.937 60.5337V69.327H206.703V34.8145H210.937V55.3383L220.072 45.0544H225.402L215.788 55.5773L226.348 69.3207H221.068L221.074 69.327Z" fill="#021D49"/>
<path d="M238.104 70C235.439 70 232.587 69.3773 230.539 67.2576C228.253 64.8549 227.4 61.3955 227.4 57.1624C227.4 52.9293 228.397 49.3252 230.968 46.9225C232.874 45.2431 235.252 44.3751 238.534 44.3751C241.149 44.3751 243.814 44.9978 245.813 46.8281C248.671 49.3252 249.001 53.0299 249.001 58.1247H231.728C231.871 63.7479 234.3 66.4903 239.057 66.4903C241.958 66.4903 244.91 65.8172 248.098 65.0499V68.4653C245.003 69.2326 241.435 70.0063 238.104 70.0063V70ZM238.247 47.4571C233.584 47.4571 232.014 50.4385 231.728 55.049H244.717C244.574 50.0045 242.861 47.4571 238.247 47.4571Z" fill="#021D49"/>
<path d="M0 19.3728C0 19.3728 13.2754 29.9084 49.5771 19.3728C85.8726 8.83727 90.6485 26.7445 90.6485 26.7445C90.6485 26.7445 82.7779 18.184 64.9944 23.4549C47.1175 28.751 14.1969 43.809 0 19.3728Z" fill="url(#paint0_linear_524069_284)"/>
<path d="M10.9902 13.9698C10.9902 13.9698 19.7824 25.1092 45.754 16.0518C66.2959 8.88759 79.6584 15.2089 79.6584 15.2089C79.6584 15.2089 72.2735 7.86234 58.0766 7.28368C40.2433 6.55405 36.4326 16.7185 10.9965 13.9698H10.9902Z" fill="url(#paint1_linear_524069_284)"/>
<path d="M63.998 5.49735C63.998 5.49735 52.0303 -4.64821 37.5282 2.63546C27.2417 7.80574 20.4297 6.76162 20.4297 6.76162C20.4297 6.76162 23.2317 8.47246 27.6278 8.77438C42.2107 9.78705 47.2668 -0.912028 63.9918 5.49735H63.998Z" fill="url(#paint2_linear_524069_284)"/>
</g>
<defs>
<linearGradient id="paint0_linear_524069_284" x1="3.3562" y1="31.4682" x2="77.9339" y2="16.8172" gradientUnits="userSpaceOnUse">
<stop stop-color="#A1C4D2"/>
<stop offset="0.5" stop-color="#0076A7"/>
<stop offset="1" stop-color="#021D49"/>
</linearGradient>
<linearGradient id="paint1_linear_524069_284" x1="1.75602" y1="23.3166" x2="76.3337" y2="8.67171" gradientUnits="userSpaceOnUse">
<stop stop-color="#A1C4D2"/>
<stop offset="0.5" stop-color="#0076A7"/>
<stop offset="1" stop-color="#021D49"/>
</linearGradient>
<linearGradient id="paint2_linear_524069_284" x1="-0.118464" y1="13.8" x2="74.4655" y2="-0.851046" gradientUnits="userSpaceOnUse">
<stop stop-color="#A1C4D2"/>
<stop offset="0.5" stop-color="#0076A7"/>
<stop offset="1" stop-color="#021D49"/>
</linearGradient>
<clipPath id="clip0_524069_284">
<rect width="249" height="70" fill="white"/>
</clipPath>
</defs>
</svg>
