<svg width="47" height="47" viewBox="0 0 47 47" fill="none" xmlns="http://www.w3.org/2000/svg">
<g clip-path="url(#clip0_524102_573)">
<path d="M32.9695 0.290039L28.2695 11.62" stroke="#A6C0CD" stroke-width="1.5" stroke-miterlimit="10"/>
<path d="M35.1406 28.3799L46.5606 33.0999" stroke="#A6C0CD" stroke-width="1.5" stroke-miterlimit="10"/>
<path d="M46.5595 13.8799L35.1895 18.5899" stroke="#A6C0CD" stroke-width="1.5" stroke-miterlimit="10"/>
<path d="M28.2207 35.25L32.9607 46.7" stroke="#A6C0CD" stroke-width="1.5" stroke-miterlimit="10"/>
<path d="M13.8809 0.290039L18.5709 11.62" stroke="#A6C0CD" stroke-width="1.5" stroke-miterlimit="10"/>
<path d="M11.6991 28.3799L0.289062 33.0999" stroke="#A6C0CD" stroke-width="1.5" stroke-miterlimit="10"/>
<path d="M0.289062 13.8799L11.6491 18.5899" stroke="#A6C0CD" stroke-width="1.5" stroke-miterlimit="10"/>
<path d="M18.6209 35.25L13.8809 46.7" stroke="#A6C0CD" stroke-width="1.5" stroke-miterlimit="10"/>
<path d="M23.4199 10.4299V18.4199" stroke="#2874A0" stroke-width="1.5" stroke-miterlimit="10"/>
<path d="M23.4199 28.48V36.48" stroke="#2874A0" stroke-width="1.5" stroke-miterlimit="10"/>
<path d="M10.4004 23.45H18.3904" stroke="#2874A0" stroke-width="1.5" stroke-miterlimit="10"/>
<path d="M28.4512 23.45H36.4512" stroke="#2874A0" stroke-width="1.5" stroke-miterlimit="10"/>
<path d="M14.2109 14.24L19.8609 19.89" stroke="#2874A0" stroke-width="1.5" stroke-miterlimit="10"/>
<path d="M26.9805 27.01L32.6305 32.66" stroke="#2874A0" stroke-width="1.5" stroke-miterlimit="10"/>
<path d="M14.2109 32.66L19.8609 27.01" stroke="#2874A0" stroke-width="1.5" stroke-miterlimit="10"/>
<path d="M26.9805 19.89L32.6305 14.24" stroke="#2874A0" stroke-width="1.5" stroke-miterlimit="10"/>
</g>
<defs>
<clipPath id="clip0_524102_573">
<rect width="46.85" height="46.98" fill="white"/>
</clipPath>
</defs>
</svg>
