<?xml version="1.0" standalone="no"?>
<!DOCTYPE svg PUBLIC "-//W3C//DTD SVG 20010904//EN"
 "http://www.w3.org/TR/2001/REC-SVG-20010904/DTD/svg10.dtd">
<svg version="1.0" xmlns="http://www.w3.org/2000/svg"
 width="120.000000pt" height="120.000000pt" viewBox="0 0 120.000000 120.000000"
 preserveAspectRatio="xMidYMid meet">
<metadata>
Created by potrace 1.14, written by Peter Selinger 2001-2017
</metadata>
<g transform="translate(0.000000,120.000000) scale(0.100000,-0.100000)"
fill="#000000" stroke="none">
<path d="M560 814 c-29 -11 -45 -15 -49 -14 -2 1 -7 -2 -10 -7 -7 -9 -58 -34
-81 -39 -8 -2 -41 -9 -72 -15 -56 -12 -77 -27 -40 -31 94 -8 140 -4 215 19 45
14 86 28 92 31 30 18 163 17 193 -2 19 -11 14 5 -5 20 -10 7 -26 14 -35 14
-10 0 -18 4 -18 8 0 10 -5 11 -100 17 -41 2 -82 2 -90 -1z"/>
<path d="M690 721 c0 -4 -12 -6 -27 -5 -16 0 -37 -2 -48 -6 -43 -16 -110 -35
-117 -32 -5 1 -8 -2 -8 -7 0 -5 -15 -12 -32 -15 -18 -3 -44 -9 -58 -13 -20 -5
-84 -8 -244 -13 -9 0 38 -40 47 -40 3 0 18 -5 34 -12 15 -6 48 -12 73 -14 25
-1 45 -3 45 -4 0 -1 10 -3 23 -4 12 -2 22 0 22 4 0 4 10 6 23 5 12 -1 49 5 82
12 80 20 76 18 106 31 22 9 82 23 109 27 3 0 10 3 15 6 19 12 203 8 254 -6 60
-15 59 -7 -4 28 -50 29 -96 45 -146 53 -54 8 -149 11 -149 5z"/>
<path d="M813 597 c-2 -4 -10 -7 -16 -5 -16 2 -99 -13 -112 -20 -5 -4 -14 -7
-20 -8 -5 -1 -30 -7 -55 -14 -69 -19 -91 -23 -180 -37 -82 -12 -309 -7 -327 8
-2 1 -7 3 -13 4 -5 1 -11 3 -12 5 -2 1 -19 4 -38 7 l-35 4 35 -38 c19 -21 38
-39 43 -41 4 -2 13 -9 20 -16 11 -11 60 -36 82 -42 61 -18 107 -23 177 -19 86
5 143 11 143 15 0 2 9 4 20 6 30 4 50 10 175 50 63 20 138 43 165 51 55 16
192 26 209 15 6 -3 20 -8 31 -9 10 -2 34 -12 52 -23 42 -25 42 -12 -1 33 -32
34 -79 60 -135 74 -38 9 -202 10 -208 0z"/>
</g>
</svg>
